<svg width="126" height="42" viewBox="0 0 126 42" fill="none" xmlns="http://www.w3.org/2000/svg">
<g clip-path="url(#clip0_247_1324)">
<path fill-rule="evenodd" clip-rule="evenodd" d="M12.9348 -1.26855C12.5131 -1.26537 11.9839 -1.25984 11.2648 -1.25099C10.1171 -1.22038 9.24638 -1.15025 8.39305 -0.997145C7.3533 -0.810882 6.41195 -0.504281 5.51193 -0.0463542C4.5973 0.417937 3.75971 1.02547 3.03301 1.75188C2.30712 2.47594 1.69798 3.31314 1.23077 4.22925C0.771561 5.13002 0.464058 6.07228 0.275814 7.1156C0.122094 7.9696 0.052352 8.83754 0.02186 9.97217L0.0114023 10.4449C0.00863026 10.6071 0.00648795 10.7751 0.00497595 10.9519L0 11.9786L6.24847e-05 28.7718L0.00314947 29.504C0.00554347 29.9703 0.011276 30.3716 0.02186 30.7571C0.052415 31.8908 0.122156 32.759 0.27575 33.6117C0.46412 34.6558 0.771686 35.5987 1.2307 36.499C1.6981 37.4146 2.307 38.2515 3.03351 38.977C3.76091 39.7033 4.59856 40.3111 5.513 40.7753C6.41195 41.2327 7.3533 41.5392 8.39343 41.7256C9.16883 41.8647 9.95891 41.9353 10.9449 41.9698L11.6839 41.988C12.0681 41.9934 12.636 41.9965 13.7697 42L29.8471 41.9974C30.2733 41.9945 30.7884 41.9891 31.575 41.9794C32.7228 41.9487 33.5936 41.8787 34.4469 41.7255C35.4866 41.5392 36.428 41.2327 37.328 40.7748C38.2417 40.3106 39.0797 39.7026 39.8064 38.977C40.5334 38.2511 41.1423 37.4138 41.6086 36.4987C42.0682 35.5988 42.376 34.6553 42.5636 33.6111C42.7033 32.8354 42.7742 32.0446 42.8087 31.0582L42.8181 30.7563C42.8244 30.5254 42.829 30.2887 42.8322 30.0358L42.8396 28.0453L42.8384 11.5835L42.8322 10.6927C42.829 10.4397 42.8244 10.2027 42.818 9.97135C42.7876 8.84218 42.7173 7.97075 42.5635 7.11617C42.3761 6.07273 42.0683 5.12983 41.6081 4.22861C41.1425 3.31396 40.5333 2.47638 39.8059 1.75086C39.0809 1.02617 38.243 0.41851 37.3273 -0.0466721C36.428 -0.504281 35.4866 -0.810881 34.4465 -0.997209C33.6711 -1.13632 32.881 -1.20695 31.895 -1.24138L31.0464 -1.26098C30.9789 -1.26181 30.9057 -1.26257 30.8254 -1.26327L12.9348 -1.26855Z" fill="#1A1A1A" fill-opacity="0.01"/>
<path fill-rule="evenodd" clip-rule="evenodd" d="M11.2806 0.0208109L13.0052 0.00292969L30.9496 0.00992827C31.2217 0.0127283 31.3909 0.0161655 31.5601 0.0208109C32.4497 0.0446745 33.3471 0.0973027 34.2269 0.255185C35.1201 0.415166 35.9506 0.676903 36.7615 1.08952C37.5584 1.49438 38.2885 2.02345 38.921 2.65574C39.5534 3.2865 40.0833 4.01488 40.4887 4.81129C40.9026 5.62177 41.164 6.4512 41.3242 7.34307C41.4824 8.22157 41.535 9.11763 41.5589 10.006C41.5702 10.4136 41.5751 10.8214 41.5772 11.2297L41.5796 11.9557L41.58 28.0445C41.58 28.5288 41.58 29.0129 41.5772 29.4978C41.5751 29.9055 41.5702 30.3132 41.5589 30.7208C41.535 31.6085 41.4824 32.5053 41.3242 33.3831C41.164 34.2749 40.9026 35.1051 40.4887 35.9155C40.0833 36.7112 39.5534 37.4396 38.921 38.0712C38.2885 38.7027 37.5584 39.2325 36.7615 39.6373C35.9506 40.0499 35.1201 40.3117 34.2269 40.4716C33.3471 40.6295 32.4497 40.6822 31.5601 40.706L28.88 40.7271L11.8906 40.7169C11.6185 40.7141 11.4496 40.7107 11.2806 40.706C10.391 40.6822 9.4936 40.6295 8.61381 40.4716C7.72072 40.3117 6.89013 40.0499 6.0792 39.6373C5.28162 39.2325 4.5522 38.7027 3.91974 38.0712C3.28735 37.4396 2.75746 36.7112 2.3513 35.9155C1.93814 35.1051 1.67669 34.2749 1.51579 33.3831C1.35766 32.5053 1.30568 31.6085 1.28181 30.7208C1.27053 30.3132 1.26562 29.9055 1.26354 29.4978L1.26045 28.7709L1.26001 12.6823C1.26001 12.1981 1.26001 11.7132 1.26354 11.2297C1.26562 10.8214 1.27053 10.4136 1.28181 10.006C1.30568 9.11763 1.35766 8.22157 1.51579 7.34307C1.67669 6.4512 1.93814 5.62177 2.3513 4.81129C2.75746 4.01488 3.28735 3.2865 3.91974 2.65574C4.5522 2.02345 5.28162 1.49438 6.0792 1.08952C6.89013 0.676903 7.72072 0.415166 8.61381 0.255185C9.4936 0.0973027 10.391 0.0446745 11.2806 0.0208109Z" fill="#1A1A1A" fill-opacity="0.01"/>
<mask id="mask0_247_1324" style="mask-type:alpha" maskUnits="userSpaceOnUse" x="1" y="0" width="41" height="41">
<path fill-rule="evenodd" clip-rule="evenodd" d="M11.2806 0.0208109L13.0052 0.00292969L30.9496 0.00992827C31.2217 0.0127283 31.3909 0.0161655 31.5601 0.0208109C32.4497 0.0446745 33.3471 0.0973027 34.2269 0.255185C35.1201 0.415166 35.9506 0.676903 36.7615 1.08952C37.5584 1.49438 38.2885 2.02345 38.921 2.65574C39.5534 3.2865 40.0833 4.01488 40.4887 4.81129C40.9026 5.62177 41.164 6.4512 41.3242 7.34307C41.4824 8.22157 41.535 9.11763 41.5589 10.006C41.5702 10.4136 41.5751 10.8214 41.5772 11.2297L41.5796 11.9557L41.58 28.0445C41.58 28.5288 41.58 29.0129 41.5772 29.4978C41.5751 29.9055 41.5702 30.3132 41.5589 30.7208C41.535 31.6085 41.4824 32.5053 41.3242 33.3831C41.164 34.2749 40.9026 35.1051 40.4887 35.9155C40.0833 36.7112 39.5534 37.4396 38.921 38.0712C38.2885 38.7027 37.5584 39.2325 36.7615 39.6373C35.9506 40.0499 35.1201 40.3117 34.2269 40.4716C33.3471 40.6295 32.4497 40.6822 31.5601 40.706L28.88 40.7271L11.8906 40.7169C11.6185 40.7141 11.4496 40.7107 11.2806 40.706C10.391 40.6822 9.4936 40.6295 8.61381 40.4716C7.72072 40.3117 6.89013 40.0499 6.0792 39.6373C5.28162 39.2325 4.5522 38.7027 3.91974 38.0712C3.28735 37.4396 2.75746 36.7112 2.3513 35.9155C1.93814 35.1051 1.67669 34.2749 1.51579 33.3831C1.35766 32.5053 1.30568 31.6085 1.28181 30.7208C1.27053 30.3132 1.26562 29.9055 1.26354 29.4978L1.26045 28.7709L1.26001 12.6823C1.26001 12.1981 1.26001 11.7132 1.26354 11.2297C1.26562 10.8214 1.27053 10.4136 1.28181 10.006C1.30568 9.11763 1.35766 8.22157 1.51579 7.34307C1.67669 6.4512 1.93814 5.62177 2.3513 4.81129C2.75746 4.01488 3.28735 3.2865 3.91974 2.65574C4.5522 2.02345 5.28162 1.49438 6.0792 1.08952C6.89013 0.676903 7.72072 0.415166 8.61381 0.255185C9.4936 0.0973027 10.391 0.0446745 11.2806 0.0208109Z" fill="white"/>
</mask>
<g mask="url(#mask0_247_1324)">
<path d="M41.58 0H1.26001V40.7273H41.58V0Z" fill="#19AA1E"/>
<path fill-rule="evenodd" clip-rule="evenodd" d="M1.26001 0H41.58V13.3636L1.26001 7V0Z" fill="#FFB919"/>
<path fill-rule="evenodd" clip-rule="evenodd" d="M1.26001 36.2728L41.58 29.9092V40.7274H1.26001V36.2728Z" fill="#82D714"/>
<path fill-rule="evenodd" clip-rule="evenodd" d="M1.26001 6.19531L15.334 8.41654C17.086 7.29635 19.1703 6.68219 21.42 6.68219C24.536 6.68219 27.3346 7.86042 29.3724 9.92937C29.6296 10.1905 29.8722 10.4635 30.0996 10.747L41.58 12.5589V14.1691L31.2653 12.5412C32.0316 14.0266 32.445 15.6816 32.445 17.3706C32.445 19.5525 31.9618 21.7281 30.9631 23.9123L30.9326 23.9785L30.5085 24.8966H29.5054C27.4341 24.8966 26.0601 25.5225 25.1619 26.6316C24.4565 27.5025 24.0487 28.6764 23.9115 29.9574L23.9073 29.9974L23.8872 30.2021L23.8787 30.2911L23.8624 30.4653C23.8099 31.0372 23.7748 31.5221 23.7569 31.9174L41.58 29.1043V30.7145L1.26001 37.0782V35.468L19.1032 32.6518L19.0953 32.2903L19.093 32.1883L19.0915 32.1361L19.0888 32.0554C19.0726 31.6171 19.0329 31.0552 18.9692 30.3742L18.957 30.2451L18.9352 30.0215C18.8071 28.7338 18.4053 27.5449 17.7019 26.6611C16.813 25.5445 15.4517 24.9094 13.3971 24.8968L13.3347 24.8966H12.3316L11.9074 23.9785C10.888 21.772 10.395 19.5746 10.395 17.3706C10.395 14.5989 11.5082 11.9187 13.4676 9.92937C13.5242 9.87197 13.5813 9.8152 13.639 9.7592L1.26001 7.80544V6.19531Z" fill="white"/>
<path fill-rule="evenodd" clip-rule="evenodd" d="M21.42 8.27246C27.049 8.27246 30.87 12.6489 30.87 17.3699C30.87 19.2653 30.4606 21.2375 29.5053 23.3051C23.9664 23.3051 22.5991 27.3119 22.3407 29.8329L22.3241 30.0009C22.2365 30.9007 22.1858 31.6226 22.172 32.1669L20.6717 32.4036L20.6713 32.3546C20.6657 31.7841 20.6123 30.9838 20.5113 29.9538L20.5068 29.9088C20.268 27.3932 18.9295 23.3051 13.3346 23.3051C12.3793 21.2375 11.97 19.2653 11.97 17.3699C11.97 12.6489 15.7909 8.27246 21.42 8.27246Z" fill="#0073FA"/>
</g>
<path fill-rule="evenodd" clip-rule="evenodd" d="M60.2282 9.86328C55.3142 9.86328 51.6287 12.886 51.6602 18.136H56.2277C56.1647 16.036 57.4877 13.9996 60.2282 13.9996C62.3072 13.9996 63.6302 15.3996 63.6302 17.1815C63.6302 19.0269 62.1812 20.0451 59.8502 21.1906C56.7947 22.686 54.9677 23.386 51.6602 24.4996V30.5451H68.6702V26.4087H57.8342C59.413 25.7439 60.9502 25.0139 62.3387 24.3406C66.0242 22.5587 68.1977 20.5542 68.1977 16.9587C68.1977 12.6315 64.9847 9.86328 60.2282 9.86328ZM75.6002 14.3178H84.4202V10.1815H71.1902V30.5451H75.6002V14.3178ZM91.3502 10.1815H86.9402V30.5451H91.3187L99.5402 17.5315V30.5451H103.95V10.1815H99.5402L91.3502 23.1951V10.1815ZM126.095 22.9087H121.527C120.834 25.1678 118.724 26.7269 116.235 26.7269C112.613 26.7269 110.25 23.5769 110.25 20.3633C110.25 17.1496 112.55 13.9996 116.361 13.9996C118.881 13.9996 120.834 15.5587 121.527 17.8178H126.095C125.433 13.2678 121.874 9.86328 116.235 9.86328C109.998 9.86328 105.84 14.286 105.84 20.3633C105.84 26.4406 109.998 30.8633 116.235 30.8633C121.874 30.8633 125.433 27.5224 126.095 22.9087Z" fill="#1A1A1A"/>
</g>
<defs>
<clipPath id="clip0_247_1324">
<rect width="126" height="42" fill="white"/>
</clipPath>
</defs>
</svg>
