<svg width="22" height="21" viewBox="0 0 22 21" fill="none" xmlns="http://www.w3.org/2000/svg">
<path d="M11.0084 0.00892739C5.31306 0.00892689 0.612169 4.70982 0.612168 10.3951C0.612168 16.0804 5.3231 20.7812 11.0184 20.7812C16.7037 20.7812 21.3945 16.0804 21.3945 10.3951C21.3945 4.70982 16.6936 0.00892789 11.0084 0.00892739ZM5.6144 10.4051C5.6144 10.1038 5.72489 9.87277 5.96596 9.64174L9.51172 6.15625C9.69252 5.98549 9.89342 5.89509 10.1546 5.89509C10.6468 5.89509 10.9983 6.26674 10.9983 6.76897C10.9983 7.02009 10.8979 7.25111 10.7271 7.41183L9.4615 8.61719L8.29632 9.55134L10.4358 9.45089L15.5084 9.45089C16.0508 9.45089 16.4325 9.85268 16.4325 10.3951C16.4325 10.9475 16.0407 11.3493 15.5084 11.3493L10.4358 11.3493L8.29632 11.2489L9.47154 12.183L10.7271 13.3884C10.8878 13.5491 10.9983 13.7801 10.9983 14.0312C10.9983 14.5335 10.6468 14.8951 10.1546 14.8951C9.89342 14.8951 9.69252 14.8248 9.51172 14.644L5.96596 11.1484C5.71485 10.9174 5.6144 10.6864 5.6144 10.4051Z" fill="#7C8799"/>
</svg>
