<svg width="25" height="24" viewBox="0 0 25 24" fill="none" xmlns="http://www.w3.org/2000/svg">
<path d="M11.9961 20C16.3809 20 20 16.3791 20 12C20 7.62089 16.3731 4 11.9884 4C7.61141 4 4 7.62089 4 12C4 16.3791 7.61914 20 11.9961 20ZM11.9961 18.4062C8.44659 18.4062 5.60851 15.5513 5.60851 12C5.60851 8.44874 8.44659 5.60155 11.9884 5.60155C15.5379 5.60155 18.3915 8.44874 18.3992 12C18.407 15.5513 15.5457 18.4062 11.9961 18.4062ZM15.9865 12C15.9865 11.7911 15.9091 11.6209 15.7313 11.4507L13.102 8.8588C12.9783 8.73501 12.8236 8.67311 12.638 8.67311C12.2745 8.67311 12.0116 8.94391 12.0116 9.30754C12.0116 9.50097 12.0967 9.66344 12.2127 9.7795L13.1484 10.677L14.0145 11.381L12.4369 11.3037H8.66312C8.26873 11.3037 7.99033 11.5977 7.99033 12C7.99033 12.3946 8.26873 12.6963 8.66312 12.6963H12.4369L14.0222 12.6267L13.1561 13.323L12.2127 14.2205C12.0812 14.3366 12.0116 14.499 12.0116 14.6925C12.0116 15.0561 12.2745 15.3346 12.638 15.3346C12.8236 15.3346 12.9783 15.265 13.102 15.1412L15.7313 12.5571C15.9014 12.3868 15.9865 12.2166 15.9865 12Z" fill="#0D3260"/>
</svg>
