<svg width="28" height="29" viewBox="0 0 28 29" fill="none" xmlns="http://www.w3.org/2000/svg">
<path d="M13.9873 28.1133C21.4624 28.1133 27.6323 21.9434 27.6323 14.4814C27.6323 7.01953 21.4492 0.849609 13.9741 0.849609C6.51221 0.849609 0.355469 7.01953 0.355469 14.4814C0.355469 21.9434 6.52539 28.1133 13.9873 28.1133ZM13.9873 25.3975C7.93604 25.3975 3.09766 20.5327 3.09766 14.4814C3.09766 8.43018 7.93604 3.57861 13.9741 3.57861C20.0254 3.57861 24.8901 8.43018 24.9033 14.4814C24.9165 20.5327 20.0386 25.3975 13.9873 25.3975ZM18.1006 10.9878C17.4282 10.9878 17.0063 11.4492 17.0063 12.1743V14.2705L17.1909 16.1558L15.4375 14.2441L10.8364 9.64307C10.5859 9.40576 10.2959 9.27393 9.93994 9.27393C9.25439 9.27393 8.7666 9.73535 8.7666 10.4473C8.7666 10.7637 8.9248 11.0669 9.14893 11.291L13.7632 15.9053L15.7012 17.6851L13.9082 17.4741H11.6802C10.9683 17.4741 10.4937 17.896 10.4937 18.5684C10.4937 19.2275 10.9551 19.6494 11.6802 19.6494H17.8369C18.6675 19.6494 19.1816 19.2407 19.1816 18.3179V12.1875C19.1816 11.4888 18.7598 10.9878 18.1006 10.9878Z" fill="#27929E"/>
<path d="M13.9873 28.1133C21.4624 28.1133 27.6323 21.9434 27.6323 14.4814C27.6323 7.01953 21.4492 0.849609 13.9741 0.849609C6.51221 0.849609 0.355469 7.01953 0.355469 14.4814C0.355469 21.9434 6.52539 28.1133 13.9873 28.1133ZM13.9873 25.3975C7.93604 25.3975 3.09766 20.5327 3.09766 14.4814C3.09766 8.43018 7.93604 3.57861 13.9741 3.57861C20.0254 3.57861 24.8901 8.43018 24.9033 14.4814C24.9165 20.5327 20.0386 25.3975 13.9873 25.3975ZM18.1006 10.9878C17.4282 10.9878 17.0063 11.4492 17.0063 12.1743V14.2705L17.1909 16.1558L15.4375 14.2441L10.8364 9.64307C10.5859 9.40576 10.2959 9.27393 9.93994 9.27393C9.25439 9.27393 8.7666 9.73535 8.7666 10.4473C8.7666 10.7637 8.9248 11.0669 9.14893 11.291L13.7632 15.9053L15.7012 17.6851L13.9082 17.4741H11.6802C10.9683 17.4741 10.4937 17.896 10.4937 18.5684C10.4937 19.2275 10.9551 19.6494 11.6802 19.6494H17.8369C18.6675 19.6494 19.1816 19.2407 19.1816 18.3179V12.1875C19.1816 11.4888 18.7598 10.9878 18.1006 10.9878Z" fill="black" fill-opacity="0.2"/>
</svg>
