<svg width="32" height="32" viewBox="0 0 32 32" fill="none" xmlns="http://www.w3.org/2000/svg">
<path d="M16.0103 6.00893C10.315 6.00893 5.61412 10.7098 5.61412 16.3951C5.61412 22.0804 10.3251 26.7812 16.0204 26.7812C21.7056 26.7812 26.3965 22.0804 26.3965 16.3951C26.3965 10.7098 21.6956 6.00893 16.0103 6.00893ZM10.6164 16.4051C10.6164 16.1038 10.7268 15.8728 10.9679 15.6417L14.5137 12.1562C14.6945 11.9855 14.8954 11.8951 15.1565 11.8951C15.6487 11.8951 16.0003 12.2667 16.0003 12.769C16.0003 13.0201 15.8998 13.2511 15.7291 13.4118L14.4635 14.6172L13.2983 15.5513L15.4378 15.4509L20.5103 15.4509C21.0527 15.4509 21.4344 15.8527 21.4344 16.3951C21.4344 16.9475 21.0427 17.3493 20.5103 17.3493L15.4378 17.3493L13.2983 17.2489L14.4735 18.183L15.7291 19.3884C15.8898 19.5491 16.0003 19.7801 16.0003 20.0312C16.0003 20.5335 15.6487 20.8951 15.1565 20.8951C14.8954 20.8951 14.6945 20.8248 14.5137 20.644L10.9679 17.1484C10.7168 16.9174 10.6164 16.6864 10.6164 16.4051Z" fill="white"/>
</svg>
