<svg width="12" height="14" viewBox="0 0 12 14" fill="none" xmlns="http://www.w3.org/2000/svg">
<path d="M5.81808 6.64192C6.00014 6.64192 6.14453 6.58541 6.25753 6.46613L8.83147 3.87336C8.96959 3.73525 9.03237 3.58458 9.03237 3.4088C9.03237 3.23929 8.96331 3.07607 8.83147 2.95051L6.25753 0.332624C6.14453 0.207066 6.00014 0.144287 5.81808 0.144287C5.47907 0.144287 5.20912 0.426793 5.20912 0.772077C5.20912 0.941581 5.2719 1.07969 5.37863 1.19897L6.87905 2.668C6.58398 2.62406 6.28265 2.59895 5.98131 2.59895C2.87374 2.59895 0.387695 5.085 0.387695 8.19884C0.387695 11.3127 2.89258 13.8176 6.00014 13.8176C9.11398 13.8176 11.6126 11.3127 11.6126 8.19884C11.6126 7.82216 11.3489 7.55221 10.9722 7.55221C10.6081 7.55221 10.3633 7.82216 10.3633 8.19884C10.3633 10.6221 8.42341 12.5683 6.00014 12.5683C3.58315 12.5683 1.637 10.6221 1.637 8.19884C1.637 5.75673 3.56431 3.82314 5.98131 3.82314C6.38937 3.82314 6.76604 3.85453 7.09877 3.91103L5.38491 5.60606C5.2719 5.71906 5.20912 5.85718 5.20912 6.02668C5.20912 6.37197 5.47907 6.64192 5.81808 6.64192Z" fill="#0D3260"/>
</svg>
