<svg width="22" height="21" viewBox="0 0 22 21" fill="none" xmlns="http://www.w3.org/2000/svg">
<path d="M10.9877 20.9911C16.683 20.9911 21.3839 16.2902 21.3839 10.6049C21.3839 4.91964 16.673 0.21875 10.9777 0.21875C5.29241 0.21875 0.601562 4.91964 0.601562 10.6049C0.601562 16.2902 5.30245 20.9911 10.9877 20.9911ZM16.3817 10.5949C16.3817 10.8962 16.2712 11.1272 16.0301 11.3583L12.4844 14.8438C12.3036 15.0145 12.1027 15.1049 11.8415 15.1049C11.3493 15.1049 10.9978 14.7333 10.9978 14.231C10.9978 13.9799 11.0982 13.7489 11.269 13.5882L12.5346 12.3828L13.6998 11.4487L11.5603 11.5491H6.48772C5.94531 11.5491 5.56362 11.1473 5.56362 10.6049C5.56362 10.0525 5.95536 9.65067 6.48772 9.65067H11.5603L13.6998 9.75112L12.5246 8.81697L11.269 7.61161C11.1083 7.45089 10.9978 7.21987 10.9978 6.96875C10.9978 6.46652 11.3493 6.10491 11.8415 6.10491C12.1027 6.10491 12.3036 6.17522 12.4844 6.35603L16.0301 9.85156C16.2812 10.0826 16.3817 10.3136 16.3817 10.5949Z" fill="#7C8799"/>
</svg>
