<svg width="32" height="32" viewBox="0 0 32 32" fill="none" xmlns="http://www.w3.org/2000/svg">
<path d="M15.9897 25.9911C21.685 25.9911 26.3859 21.2902 26.3859 15.6049C26.3859 9.91964 21.6749 5.21875 15.9796 5.21875C10.2944 5.21875 5.60352 9.91964 5.60352 15.6049C5.60352 21.2902 10.3044 25.9911 15.9897 25.9911ZM21.3836 15.5949C21.3836 15.8962 21.2732 16.1272 21.0321 16.3583L17.4863 19.8438C17.3055 20.0145 17.1046 20.1049 16.8435 20.1049C16.3513 20.1049 15.9997 19.7333 15.9997 19.231C15.9997 18.9799 16.1002 18.7489 16.2709 18.5882L17.5366 17.3828L18.7017 16.4487L16.5622 16.5491H11.4897C10.9473 16.5491 10.5656 16.1473 10.5656 15.6049C10.5656 15.0525 10.9573 14.6507 11.4897 14.6507H16.5622L18.7017 14.7511L17.5265 13.817L16.2709 12.6116C16.1102 12.4509 15.9997 12.2199 15.9997 11.9688C15.9997 11.4665 16.3513 11.1049 16.8435 11.1049C17.1046 11.1049 17.3055 11.1752 17.4863 11.356L21.0321 14.8516C21.2832 15.0826 21.3836 15.3136 21.3836 15.5949Z" fill="white"/>
</svg>
