<svg width="17" height="16" viewBox="0 0 17 16" fill="none" xmlns="http://www.w3.org/2000/svg">
<path d="M8.60282 16C12.9876 16 16.6067 12.3791 16.6067 8C16.6067 3.62089 12.9798 0 8.59509 0C4.2181 0 0.606689 3.62089 0.606689 8C0.606689 12.3791 4.22583 16 8.60282 16ZM8.60282 14.4062C5.05328 14.4062 2.2152 11.5513 2.2152 8C2.2152 4.44874 5.05328 1.60155 8.59509 1.60155C12.1446 1.60155 14.9982 4.44874 15.0059 8C15.0136 11.5513 12.1524 14.4062 8.60282 14.4062ZM12.5932 8C12.5932 7.7911 12.5158 7.62089 12.338 7.45068L9.70867 4.8588C9.58494 4.73501 9.43028 4.67311 9.24468 4.67311C8.88122 4.67311 8.61829 4.94391 8.61829 5.30754C8.61829 5.50097 8.70335 5.66344 8.81935 5.7795L9.75507 6.67698L10.6212 7.38104L9.04362 7.30368H5.26981C4.87542 7.30368 4.59702 7.59768 4.59702 8C4.59702 8.39458 4.87542 8.69633 5.26981 8.69633H9.04362L10.6289 8.62669L9.7628 9.32302L8.81935 10.2205C8.68789 10.3366 8.61829 10.499 8.61829 10.6925C8.61829 11.0561 8.88122 11.3346 9.24468 11.3346C9.43028 11.3346 9.58494 11.265 9.70867 11.1412L12.338 8.55706C12.5081 8.38685 12.5932 8.21663 12.5932 8Z" fill="#27929E"/>
<path d="M8.60282 16C12.9876 16 16.6067 12.3791 16.6067 8C16.6067 3.62089 12.9798 0 8.59509 0C4.2181 0 0.606689 3.62089 0.606689 8C0.606689 12.3791 4.22583 16 8.60282 16ZM8.60282 14.4062C5.05328 14.4062 2.2152 11.5513 2.2152 8C2.2152 4.44874 5.05328 1.60155 8.59509 1.60155C12.1446 1.60155 14.9982 4.44874 15.0059 8C15.0136 11.5513 12.1524 14.4062 8.60282 14.4062ZM12.5932 8C12.5932 7.7911 12.5158 7.62089 12.338 7.45068L9.70867 4.8588C9.58494 4.73501 9.43028 4.67311 9.24468 4.67311C8.88122 4.67311 8.61829 4.94391 8.61829 5.30754C8.61829 5.50097 8.70335 5.66344 8.81935 5.7795L9.75507 6.67698L10.6212 7.38104L9.04362 7.30368H5.26981C4.87542 7.30368 4.59702 7.59768 4.59702 8C4.59702 8.39458 4.87542 8.69633 5.26981 8.69633H9.04362L10.6289 8.62669L9.7628 9.32302L8.81935 10.2205C8.68789 10.3366 8.61829 10.499 8.61829 10.6925C8.61829 11.0561 8.88122 11.3346 9.24468 11.3346C9.43028 11.3346 9.58494 11.265 9.70867 11.1412L12.338 8.55706C12.5081 8.38685 12.5932 8.21663 12.5932 8Z" fill="black" fill-opacity="0.2"/>
</svg>
