<svg width="16" height="16" viewBox="0 0 16 16" fill="none" xmlns="http://www.w3.org/2000/svg">
<path d="M7.99613 16C12.3809 16 16 12.3791 16 8C16 3.62089 12.3731 0 7.9884 0C3.61141 0 0 3.62089 0 8C0 12.3791 3.61914 16 7.99613 16ZM7.99613 14.4062C4.44659 14.4062 1.60851 11.5513 1.60851 8C1.60851 4.44874 4.44659 1.60155 7.9884 1.60155C11.5379 1.60155 14.3915 4.44874 14.3992 8C14.407 11.5513 11.5457 14.4062 7.99613 14.4062ZM11.9865 8C11.9865 7.7911 11.9091 7.62089 11.7313 7.45068L9.10198 4.8588C8.97825 4.73501 8.82359 4.67311 8.63799 4.67311C8.27453 4.67311 8.0116 4.94391 8.0116 5.30754C8.0116 5.50097 8.09667 5.66344 8.21266 5.7795L9.14838 6.67698L10.0145 7.38104L8.43693 7.30368H4.66312C4.26873 7.30368 3.99033 7.59768 3.99033 8C3.99033 8.39458 4.26873 8.69633 4.66312 8.69633H8.43693L10.0222 8.62669L9.15611 9.32302L8.21266 10.2205C8.0812 10.3366 8.0116 10.499 8.0116 10.6925C8.0116 11.0561 8.27453 11.3346 8.63799 11.3346C8.82359 11.3346 8.97825 11.265 9.10198 11.1412L11.7313 8.55706C11.9014 8.38685 11.9865 8.21663 11.9865 8Z" fill="white"/>
</svg>
