<svg width="25" height="24" viewBox="0 0 25 24" fill="none" xmlns="http://www.w3.org/2000/svg">
<path d="M11.8137 3.12099C12.2759 2.64707 12.8275 2.26962 13.4366 2.01055C14.0458 1.75148 14.7003 1.61594 15.3622 1.61179C16.0241 1.60765 16.6803 1.73497 17.2926 1.98639C17.905 2.23781 18.4613 2.60831 18.9293 3.07641C19.3974 3.54451 19.7678 4.10088 20.0191 4.71325C20.2704 5.32562 20.3977 5.9818 20.3934 6.64373C20.3892 7.30566 20.2536 7.96016 19.9944 8.56926C19.7352 9.17836 19.3577 9.72993 18.8837 10.192L11.1067 17.97C10.829 18.2523 10.4982 18.4769 10.1332 18.6307C9.76832 18.7845 9.37655 18.8646 8.98053 18.8662C8.58451 18.8679 8.19208 18.7911 7.82588 18.6404C7.45968 18.4896 7.12695 18.2678 6.84689 17.9878C6.56683 17.7078 6.34497 17.3752 6.19413 17.009C6.04328 16.6428 5.96642 16.2504 5.96798 15.8544C5.96955 15.4584 6.04951 15.0666 6.20325 14.7016C6.35699 14.3367 6.58146 14.0058 6.86373 13.728L14.6417 5.94999L16.0557 7.36399L8.27773 15.142C8.18222 15.2342 8.10604 15.3446 8.05363 15.4666C8.00122 15.5886 7.97364 15.7198 7.97248 15.8526C7.97133 15.9854 7.99663 16.1171 8.04691 16.2399C8.09719 16.3628 8.17144 16.4745 8.26534 16.5684C8.35923 16.6623 8.47088 16.7365 8.59378 16.7868C8.71667 16.8371 8.84835 16.8624 8.98113 16.8612C9.11391 16.8601 9.24513 16.8325 9.36714 16.7801C9.48914 16.7277 9.59949 16.6515 9.69173 16.556L17.4707 8.77799C17.7493 8.4994 17.9703 8.16865 18.1211 7.80464C18.2719 7.44063 18.3495 7.05049 18.3495 6.65649C18.3495 6.2625 18.2719 5.87235 18.1211 5.50835C17.9703 5.14434 17.7493 4.81359 17.4707 4.53499C17.1921 4.2564 16.8614 4.0354 16.4974 3.88462C16.1334 3.73384 15.7432 3.65624 15.3492 3.65624C14.9552 3.65624 14.5651 3.73384 14.2011 3.88462C13.8371 4.0354 13.5063 4.2564 13.2277 4.53499L5.44973 12.314C4.53894 13.257 4.03497 14.52 4.04636 15.831C4.05775 17.142 4.5836 18.396 5.51064 19.3231C6.43768 20.2501 7.69174 20.776 9.00273 20.7874C10.3137 20.7988 11.5767 20.2948 12.5197 19.384L21.0057 10.899L22.4197 12.314L13.9347 20.799C12.6219 22.1118 10.8413 22.8494 8.98473 22.8494C7.12812 22.8494 5.34755 22.1118 4.03473 20.799C2.72191 19.4862 1.98438 17.7056 1.98438 15.849C1.98437 13.9924 2.72191 12.2118 4.03473 10.899L11.8137 3.12099Z" fill="#7C8799"/>
</svg>
