<svg width="32" height="32" viewBox="0 0 32 32" fill="none" xmlns="http://www.w3.org/2000/svg">
<path d="M4.33331 12.3333H27.6666M9.81465 6.33333V3.66667M22.148 6.33333V3.66667M23 6.33333H8.99998C7.7623 6.33333 6.57532 6.825 5.70015 7.70017C4.82498 8.57534 4.33331 9.76232 4.33331 11V23.6667C4.33331 24.9043 4.82498 26.0913 5.70015 26.9665C6.57532 27.8417 7.7623 28.3333 8.99998 28.3333H23C24.2377 28.3333 25.4246 27.8417 26.2998 26.9665C27.175 26.0913 27.6666 24.9043 27.6666 23.6667V11C27.6666 9.76232 27.175 8.57534 26.2998 7.70017C25.4246 6.825 24.2377 6.33333 23 6.33333Z" stroke="#27929E" stroke-width="1.5" stroke-linecap="round" stroke-linejoin="round"/>
<path d="M4.33331 12.3333H27.6666M9.81465 6.33333V3.66667M22.148 6.33333V3.66667M23 6.33333H8.99998C7.7623 6.33333 6.57532 6.825 5.70015 7.70017C4.82498 8.57534 4.33331 9.76232 4.33331 11V23.6667C4.33331 24.9043 4.82498 26.0913 5.70015 26.9665C6.57532 27.8417 7.7623 28.3333 8.99998 28.3333H23C24.2377 28.3333 25.4246 27.8417 26.2998 26.9665C27.175 26.0913 27.6666 24.9043 27.6666 23.6667V11C27.6666 9.76232 27.175 8.57534 26.2998 7.70017C25.4246 6.825 24.2377 6.33333 23 6.33333Z" stroke="black" stroke-opacity="0.2" stroke-width="1.5" stroke-linecap="round" stroke-linejoin="round"/>
</svg>
