<svg width="14" height="9" viewBox="0 0 14 9" fill="none" xmlns="http://www.w3.org/2000/svg">
<path d="M7.00035 8.02637C7.24205 8.01946 7.46303 7.92969 7.64258 7.73633L12.8909 2.3637C13.0428 2.21177 13.1257 2.01842 13.1257 1.79053C13.1257 1.33475 12.7666 0.96875 12.3108 0.96875C12.0898 0.96875 11.8758 1.05852 11.7169 1.21735L7.00725 6.05824L2.28376 1.21735C2.12493 1.06543 1.91776 0.96875 1.68987 0.96875C1.2341 0.96875 0.875 1.33475 0.875 1.79053C0.875 2.01842 0.957868 2.21177 1.10979 2.3637L6.36503 7.73633C6.55148 7.92969 6.75865 8.02637 7.00035 8.02637Z" fill="#0D3260"/>
</svg>
