<svg width="24" height="24" viewBox="0 0 24 24" fill="none" xmlns="http://www.w3.org/2000/svg">
<path d="M5.3312 17.0052C4.89821 17.4381 4.87759 18.2113 5.34151 18.6546C5.7848 19.1186 6.56831 19.0979 7.0013 18.6649L12.0013 13.6649L17.0013 18.6649C17.4446 19.1082 18.2075 19.1186 18.6508 18.6546C19.1147 18.2113 19.1044 17.4381 18.6611 16.9948L13.6611 11.9948L18.6611 7.00515C19.1044 6.55155 19.1147 5.78866 18.6508 5.34536C18.2075 4.88144 17.4446 4.89175 17.0013 5.33505L12.0013 10.3351L7.0013 5.33505C6.56831 4.90206 5.7848 4.88144 5.34151 5.34536C4.87759 5.78866 4.89821 6.56186 5.3312 6.99485L10.3312 11.9948L5.3312 17.0052Z" fill="#0D3260"/>
</svg>
