<svg width="32" height="32" viewBox="0 0 32 32" fill="none" xmlns="http://www.w3.org/2000/svg">
<path d="M26.314 6.58826H5.69738C4.82553 6.58826 4.11719 7.29665 4.11719 8.16845V23.8316C4.11719 24.7034 4.82553 25.4118 5.69738 25.4118H26.3091C27.1809 25.4118 27.8893 24.7034 27.8893 23.8316V8.16845C27.8942 7.29665 27.1859 6.58826 26.314 6.58826ZM26.21 7.579L16.6893 17.2632C16.3128 17.6297 15.7135 17.6347 15.332 17.2731L5.80141 7.579H26.21ZM5.10788 23.7424V8.28734L12.9989 16.3121L5.10788 23.7424ZM5.83113 24.421L13.6974 17.0204L14.6336 17.9765C15.0001 18.3331 15.4905 18.5362 16.0008 18.5362C16.5159 18.5362 17.0163 18.3331 17.3828 17.9715L18.0862 17.2532L26.1605 24.421H5.83113ZM26.9035 23.7622L18.7846 16.54L26.9035 8.28734V23.7622Z" fill="#27929E"/>
<path d="M26.314 6.58826H5.69738C4.82553 6.58826 4.11719 7.29665 4.11719 8.16845V23.8316C4.11719 24.7034 4.82553 25.4118 5.69738 25.4118H26.3091C27.1809 25.4118 27.8893 24.7034 27.8893 23.8316V8.16845C27.8942 7.29665 27.1859 6.58826 26.314 6.58826ZM26.21 7.579L16.6893 17.2632C16.3128 17.6297 15.7135 17.6347 15.332 17.2731L5.80141 7.579H26.21ZM5.10788 23.7424V8.28734L12.9989 16.3121L5.10788 23.7424ZM5.83113 24.421L13.6974 17.0204L14.6336 17.9765C15.0001 18.3331 15.4905 18.5362 16.0008 18.5362C16.5159 18.5362 17.0163 18.3331 17.3828 17.9715L18.0862 17.2532L26.1605 24.421H5.83113ZM26.9035 23.7622L18.7846 16.54L26.9035 8.28734V23.7622Z" fill="black" fill-opacity="0.2"/>
</svg>
