<svg width="26" height="26" viewBox="0 0 26 26" fill="none" xmlns="http://www.w3.org/2000/svg">
<path d="M13.5075 19C19.6662 19 23.807 14.034 23.807 12.4962C23.807 10.9585 19.6512 6 13.5075 6C7.43881 6 3.19299 10.9585 3.19299 12.4962C3.19299 14.034 7.42381 19 13.5075 19ZM13.5075 17.5297C8.72156 17.5297 4.93333 13.5465 4.93333 12.4962C4.93333 11.6186 8.72156 7.47028 13.5075 7.47028C18.2709 7.47028 22.0666 11.6186 22.0666 12.4962C22.0666 13.5465 18.2709 17.5297 13.5075 17.5297ZM13.5075 16.5245C15.7429 16.5245 17.5358 14.6867 17.5358 12.4962C17.5358 10.2533 15.7429 8.47548 13.5075 8.47548C11.257 8.47548 9.4567 10.2533 9.4642 12.4962C9.4792 14.6867 11.257 16.5245 13.5075 16.5245ZM13.5 13.794C12.7798 13.794 12.1947 13.2089 12.1947 12.4962C12.1947 11.7836 12.7798 11.1985 13.5 11.1985C14.2201 11.1985 14.8052 11.7836 14.8052 12.4962C14.8052 13.2089 14.2201 13.794 13.5 13.794Z" fill="#0D3260"/>
</svg>
