<svg width="20" height="20" viewBox="0 0 20 20" fill="none" xmlns="http://www.w3.org/2000/svg">
<path d="M10.0071 15.2038C15.1613 15.2038 18.6267 11.0479 18.6267 9.76088C18.6267 8.47391 15.1487 4.32422 10.0071 4.32422C4.92829 4.32422 1.375 8.47391 1.375 9.76088C1.375 11.0479 4.91574 15.2038 10.0071 15.2038ZM10.0071 13.9734C6.00181 13.9734 2.83147 10.6398 2.83147 9.76088C2.83147 9.02637 6.00181 5.55469 10.0071 5.55469C13.9936 5.55469 17.1702 9.02637 17.1702 9.76088C17.1702 10.6398 13.9936 13.9734 10.0071 13.9734ZM10.0071 13.1321C11.8779 13.1321 13.3783 11.594 13.3783 9.76088C13.3783 7.88379 11.8779 6.39593 10.0071 6.39593C8.12374 6.39593 6.61705 7.88379 6.62333 9.76088C6.63588 11.594 8.12374 13.1321 10.0071 13.1321ZM10.0008 10.847C9.39816 10.847 8.90848 10.3573 8.90848 9.76088C8.90848 9.16448 9.39816 8.6748 10.0008 8.6748C10.6035 8.6748 11.0932 9.16448 11.0932 9.76088C11.0932 10.3573 10.6035 10.847 10.0008 10.847Z" fill="#7C8799"/>
</svg>
