<svg width="20" height="20" viewBox="0 0 20 20" fill="none" xmlns="http://www.w3.org/2000/svg">
<path d="M3.78477 12.3837C3.78477 13.363 4.38745 14.2419 5.44214 14.8886V15.4912C5.09685 15.6042 4.88341 15.9056 4.88341 16.3199V18.0087C4.88341 18.5423 5.23497 18.8939 5.76859 18.8939H6.03226C6.56588 18.8939 6.91745 18.5423 6.91745 18.0087V16.3199C6.91745 15.9119 6.71028 15.6042 6.37127 15.4912V15.3469C7.3569 15.7424 8.59365 15.9746 9.99362 15.9746C13.685 15.9746 16.2087 14.3801 16.2087 12.3837V9.57118L17.9917 8.75505C18.4374 8.54788 18.6822 8.15237 18.6822 7.72548C18.6822 7.30486 18.4374 6.90307 17.9917 6.70218L11.7828 3.86457C11.0985 3.55695 10.5461 3.41256 9.99362 3.41884C9.44744 3.41256 8.89498 3.55695 8.20442 3.86457L2.00185 6.70218C1.54984 6.90307 1.31128 7.30486 1.31128 7.72548C1.31128 8.15237 1.54984 8.54788 2.00185 8.75505L3.78477 9.57118V12.3837ZM9.99362 10.8016C9.59183 10.8016 9.20888 10.7012 8.68781 10.4564L7.01789 9.70302L9.40977 8.44744C9.59811 8.49766 9.80528 8.52905 10.0187 8.52905C10.7344 8.52905 11.425 8.19632 11.425 7.72548C11.425 7.26719 10.7344 6.94074 10.0187 6.94074C9.29677 6.94074 8.59992 7.26719 8.59992 7.72548C8.59992 7.78826 8.61248 7.84476 8.63131 7.89498L6.01971 9.24473L3.0942 7.91381C2.99376 7.86987 2.94353 7.80709 2.94353 7.72548C2.94353 7.65014 2.99376 7.58109 3.0942 7.53714L8.68781 4.99459C9.20888 4.75603 9.59183 4.6493 9.99362 4.6493C10.3954 4.6493 10.7784 4.75603 11.3057 4.99459L16.8993 7.53714C16.9935 7.58109 17.0437 7.65014 17.0437 7.72548C17.0437 7.80709 16.9935 7.86987 16.8993 7.91381L11.3057 10.4564C10.7784 10.7012 10.3954 10.8016 9.99362 10.8016ZM4.99641 12.3837V10.1236L5.44214 10.3245V13.407C5.14708 13.0868 4.99641 12.7415 4.99641 12.3837ZM9.99362 12.0384C10.5461 12.0447 11.0985 11.9003 11.7828 11.5864L14.9971 10.1236V12.3837C14.9971 13.6581 13.0133 14.8321 9.99362 14.8321C8.4932 14.8321 7.2439 14.537 6.37127 14.085V10.7514L8.20442 11.5864C8.89498 11.9003 9.44744 12.0447 9.99362 12.0384Z" fill="#0D3260"/>
</svg>
