<svg width="24" height="24" viewBox="0 0 24 24" fill="none" xmlns="http://www.w3.org/2000/svg">
<path d="M24 15.7988C24 18.3118 23.7055 20.689 23.1787 22.7979L12.8447 12.4551L23.1748 22.7969C20.9711 23.3856 18.4601 23.7197 15.791 23.7197C13.3767 23.7197 11.0852 23.4466 9.03516 22.959C3.69254 21.6893 -8.28815e-07 18.9611 -6.90546e-07 15.7979C0.000264569 12.6348 3.69224 9.90636 9.03027 8.63672L9.03516 8.64062C10.3391 3.51 13.0079 -4.8048e-07 16.085 -3.45977e-07C19.1621 0.000371504 21.8881 3.58533 23.1787 8.7998C23.7055 10.9086 24 13.2858 24 15.7988Z" fill="#EDF0F5"/>
</svg>
