<svg width="32" height="32" viewBox="0 0 32 32" fill="none" xmlns="http://www.w3.org/2000/svg">
<path d="M8.53334 6.34667C10.5204 4.39932 13.1957 3.31484 15.9779 3.32889C18.7601 3.34294 21.4243 4.45439 23.3916 6.42171C25.3589 8.38903 26.4704 11.0533 26.4844 13.8354C26.4985 16.6176 25.414 19.2929 23.4667 21.28L17.8853 26.8613C17.3853 27.3613 16.7071 27.6421 16 27.6421C15.2929 27.6421 14.6147 27.3613 14.1147 26.8613L8.53334 21.28C6.55319 19.2996 5.44077 16.6138 5.44077 13.8133C5.44077 11.0128 6.55319 8.32702 8.53334 6.34667Z" stroke="#27929E" stroke-width="1.5" stroke-linejoin="round"/>
<path d="M8.53334 6.34667C10.5204 4.39932 13.1957 3.31484 15.9779 3.32889C18.7601 3.34294 21.4243 4.45439 23.3916 6.42171C25.3589 8.38903 26.4704 11.0533 26.4844 13.8354C26.4985 16.6176 25.414 19.2929 23.4667 21.28L17.8853 26.8613C17.3853 27.3613 16.7071 27.6421 16 27.6421C15.2929 27.6421 14.6147 27.3613 14.1147 26.8613L8.53334 21.28C6.55319 19.2996 5.44077 16.6138 5.44077 13.8133C5.44077 11.0128 6.55319 8.32702 8.53334 6.34667Z" stroke="black" stroke-opacity="0.2" stroke-width="1.5" stroke-linejoin="round"/>
<path d="M16 17.8133C18.2091 17.8133 20 16.0225 20 13.8133C20 11.6042 18.2091 9.81334 16 9.81334C13.7909 9.81334 12 11.6042 12 13.8133C12 16.0225 13.7909 17.8133 16 17.8133Z" stroke="#27929E" stroke-width="1.5" stroke-linecap="round" stroke-linejoin="round"/>
<path d="M16 17.8133C18.2091 17.8133 20 16.0225 20 13.8133C20 11.6042 18.2091 9.81334 16 9.81334C13.7909 9.81334 12 11.6042 12 13.8133C12 16.0225 13.7909 17.8133 16 17.8133Z" stroke="black" stroke-opacity="0.2" stroke-width="1.5" stroke-linecap="round" stroke-linejoin="round"/>
</svg>
