<svg width="17" height="17" viewBox="0 0 17 17" fill="none" xmlns="http://www.w3.org/2000/svg">
<rect width="17" height="17" rx="3" fill="#0D3260"/>
<path d="M8.50429 8.7689C8.67976 8.7689 8.83482 8.68729 9.01845 8.50366L12.5768 4.97391C12.4176 4.83109 12.1361 4.76172 11.7402 4.76172H5.15817C4.80723 4.76172 4.55831 4.82701 4.41549 4.95759L7.99013 8.50366C8.16968 8.68729 8.32882 8.7689 8.50429 8.7689ZM4.02375 11.2377L6.95773 8.33228L4.02783 5.4391C3.95438 5.56968 3.91357 5.78596 3.91357 6.09201V10.6011C3.91357 10.899 3.9503 11.1112 4.02375 11.2377ZM12.9767 11.2336C13.046 11.1071 13.0828 10.8949 13.0828 10.6011V6.09201C13.0828 5.79412 13.042 5.57785 12.9685 5.45135L10.0509 8.33228L12.9767 11.2336ZM5.2561 11.9314H11.8382C12.1973 11.9314 12.4503 11.862 12.5972 11.7274L9.61014 8.76074L9.35714 9.00966C9.07558 9.28306 8.80626 9.41364 8.50429 9.41364C8.20232 9.41364 7.92892 9.28306 7.64736 9.00966L7.39436 8.76074L4.41141 11.7192C4.57464 11.8579 4.86028 11.9314 5.2561 11.9314Z" fill="white"/>
</svg>
