<svg width="41" height="22" viewBox="0 0 41 22" fill="none" xmlns="http://www.w3.org/2000/svg">
<g clip-path="url(#clip0_1_492)">
<path d="M24.7513 3.01758H16.2686V18.9835H24.7513V3.01758Z" fill="#FF5F00"/>
<path d="M16.8071 11.0005C16.8058 9.46288 17.1385 7.94508 17.78 6.56202C18.4215 5.17896 19.355 3.9669 20.5099 3.01757C19.0797 1.84019 17.3622 1.10799 15.5535 0.904671C13.7448 0.701348 11.918 1.0351 10.2819 1.86778C8.64575 2.70047 7.2663 3.99849 6.30121 5.61348C5.33613 7.22848 4.82434 9.09527 4.82434 11.0005C4.82434 12.9057 5.33613 14.7725 6.30121 16.3875C7.2663 18.0025 8.64575 19.3006 10.2819 20.1332C11.918 20.9659 13.7448 21.2997 15.5535 21.0963C17.3622 20.893 19.0797 20.1608 20.5099 18.9834C19.355 18.0341 18.4215 16.822 17.78 15.439C17.1385 14.0559 16.8058 12.5381 16.8071 11.0005Z" fill="#EB001B"/>
<path d="M36.1949 11.0005C36.195 12.9057 35.6833 14.7725 34.7182 16.3875C33.7532 18.0025 32.3738 19.3005 30.7377 20.1332C29.1016 20.9659 27.2748 21.2997 25.4662 21.0963C23.6575 20.893 21.94 20.1608 20.5099 18.9834C21.6637 18.0332 22.5965 16.8209 23.2379 15.4381C23.8794 14.0552 24.2126 12.5379 24.2126 11.0005C24.2126 9.46312 23.8794 7.9458 23.2379 6.56296C22.5965 5.18012 21.6637 3.96785 20.5099 3.01757C21.94 1.84019 23.6575 1.10799 25.4662 0.904668C27.2748 0.701348 29.1016 1.03511 30.7377 1.86781C32.3738 2.7005 33.7532 3.99852 34.7182 5.61352C35.6833 7.22851 36.195 9.0953 36.1949 11.0005Z" fill="#F79E1B"/>
<path d="M35.27 17.2925V16.9657H35.3959V16.8991H35.0754V16.9657H35.2013V17.2925H35.27ZM35.8922 17.2925V16.8984H35.794L35.681 17.1695L35.568 16.8984H35.4697V17.2925H35.539V16.9953L35.645 17.2516H35.7169L35.8229 16.9946V17.2925H35.8922Z" fill="#F79E1B"/>
</g>
<defs>
<clipPath id="clip0_1_492">
<rect width="41" height="22" fill="white"/>
</clipPath>
</defs>
</svg>
