<svg width="71" height="20" viewBox="0 0 71 20" fill="none" xmlns="http://www.w3.org/2000/svg">
<path d="M49.527 9.28223V18.9683H54.9885V13.2284H61.1783C63.7816 13.2105 65.9935 11.5692 66.831 9.28223H49.527Z" fill="#37A72E"/>
<path d="M48.7988 1.2998C49.1174 5.25496 52.9223 8.38501 57.5646 8.38501C57.5828 8.38501 67.0586 8.38501 67.0586 8.38501C67.1314 8.02626 67.1678 7.64958 67.1678 7.26393C67.1678 3.98142 64.4826 1.32671 61.1601 1.2998H48.7988Z" fill="url(#paint0_linear_1_479)"/>
<path d="M40.7157 8.28635C40.7795 8.17873 40.8796 8.11595 41.007 8.11595C41.1891 8.11595 41.3256 8.25945 41.3347 8.42985V18.8783H46.7963V1.2998H41.3347C40.6429 1.32671 39.8601 1.81998 39.5688 2.43882L35.2269 11.6227C35.2178 11.6586 35.1996 11.6944 35.1814 11.7303C35.1177 11.82 35.0084 11.8828 34.881 11.8828C34.6807 11.8828 34.5169 11.7213 34.5169 11.524V1.2998H29.0554V18.8783H34.5169C35.1996 18.8424 35.9642 18.3491 36.2555 17.7393L40.7157 8.31326C40.7066 8.30429 40.7157 8.29532 40.7157 8.28635Z" fill="#37A72E"/>
<path d="M20.326 8.59146L17.131 18.8785H13.1987L10.0128 8.5825C9.98548 8.42106 9.83984 8.2955 9.65779 8.2955C9.45753 8.2955 9.30279 8.45693 9.30279 8.64528V18.8695H3.84125V1.29102H8.52907H9.92176C10.923 1.29102 11.9789 2.06232 12.2702 3.00402L14.9282 11.569C15.0647 11.9995 15.2741 11.9906 15.4106 11.569L18.0686 3.00402C18.3598 2.05335 19.4157 1.29102 20.417 1.29102H21.8097H26.4975V18.8695H21.036V8.64528C21.036 8.64528 21.036 8.64528 21.036 8.63631C21.036 8.439 20.8721 8.28653 20.681 8.28653C20.4989 8.2955 20.3533 8.42106 20.326 8.59146Z" fill="#37A72E"/>
<defs>
<linearGradient id="paint0_linear_1_479" x1="48.801" y1="4.84241" x2="67.1667" y2="4.84241" gradientUnits="userSpaceOnUse">
<stop stop-color="#00A0E5"/>
<stop offset="1" stop-color="#0077C3"/>
</linearGradient>
</defs>
</svg>
