<svg width="30" height="30" viewBox="0 0 30 30" fill="none" xmlns="http://www.w3.org/2000/svg">
<circle cx="15" cy="15" r="15" fill="#007691"/>
<path d="M11.7924 18.1616C14.0148 20.3915 16.7193 22.1091 18.9266 22.1091C19.9135 22.1091 20.7799 21.7626 21.4729 20.9941C21.8797 20.5421 22.1283 20.0223 22.1283 19.5025C22.1283 19.1032 21.9701 18.7115 21.5859 18.4403L19.2732 16.798C18.904 16.5419 18.6027 16.4213 18.3315 16.4213C17.9774 16.4213 17.661 16.6172 17.3145 16.9637L16.772 17.5061C16.6816 17.589 16.5762 17.6267 16.4782 17.6267C16.3577 17.6267 16.2447 17.5815 16.1694 17.5363C15.6948 17.2801 14.8811 16.5871 14.1278 15.8337C13.3744 15.0804 12.6738 14.2743 12.4252 13.7921C12.38 13.7093 12.3424 13.6038 12.3424 13.4833C12.3424 13.3929 12.3725 13.2874 12.4554 13.197L12.9978 12.647C13.3368 12.293 13.5402 11.9841 13.5402 11.63C13.5402 11.3513 13.4196 11.0499 13.1635 10.6883L11.5287 8.39816C11.25 8.00642 10.8583 7.84068 10.4289 7.84068C9.91657 7.84068 9.4043 8.06669 8.95982 8.4961C8.20647 9.20424 7.875 10.0857 7.875 11.0575C7.875 13.2648 9.57003 15.9392 11.7924 18.1616Z" fill="white"/>
</svg>
