<svg width="25" height="28" viewBox="0 0 25 28" fill="none" xmlns="http://www.w3.org/2000/svg">
<path d="M9.375 2.77083C9.375 2.20705 9.84137 1.75 10.4167 1.75H14.5833C15.1586 1.75 15.625 2.20705 15.625 2.77083V3.79167C15.625 4.35545 15.1586 4.8125 14.5833 4.8125H10.4167C9.84137 4.8125 9.375 4.35545 9.375 3.79167V2.77083Z" fill="#27929E"/>
<path d="M9.375 2.77083C9.375 2.20705 9.84137 1.75 10.4167 1.75H14.5833C15.1586 1.75 15.625 2.20705 15.625 2.77083V3.79167C15.625 4.35545 15.1586 4.8125 14.5833 4.8125H10.4167C9.84137 4.8125 9.375 4.35545 9.375 3.79167V2.77083Z" fill="black" fill-opacity="0.2"/>
<path d="M17.1901 2.04166H7.8151C6.80834 2.04166 5.99219 2.95574 5.99219 4.08332V23.9167C5.99219 25.0442 6.80834 25.9583 7.8151 25.9583H17.1901C18.1969 25.9583 19.013 25.0442 19.013 23.9167V4.08332C19.013 2.95574 18.1969 2.04166 17.1901 2.04166Z" stroke="#27929E"/>
<path d="M17.1901 2.04166H7.8151C6.80834 2.04166 5.99219 2.95574 5.99219 4.08332V23.9167C5.99219 25.0442 6.80834 25.9583 7.8151 25.9583H17.1901C18.1969 25.9583 19.013 25.0442 19.013 23.9167V4.08332C19.013 2.95574 18.1969 2.04166 17.1901 2.04166Z" stroke="black" stroke-opacity="0.2"/>
<path d="M9.375 22.75H15.625" stroke="#27929E" stroke-linecap="round"/>
<path d="M9.375 22.75H15.625" stroke="black" stroke-opacity="0.2" stroke-linecap="round"/>
</svg>
