<svg width="17" height="17" viewBox="0 0 17 17" fill="none" xmlns="http://www.w3.org/2000/svg">
<rect width="17" height="17" rx="3" fill="#0D3260"/>
<path d="M6.76158 10.2116C7.96537 11.4194 9.43032 12.3498 10.6259 12.3498C11.1605 12.3498 11.6298 12.1621 12.0052 11.7459C12.2256 11.501 12.3602 11.2195 12.3602 10.9379C12.3602 10.7216 12.2745 10.5095 12.0664 10.3625L10.8137 9.47297C10.6137 9.33423 10.4505 9.26894 10.3036 9.26894C10.1118 9.26894 9.94039 9.37504 9.75269 9.56274L9.45888 9.85655C9.40991 9.90144 9.35278 9.92184 9.29973 9.92184C9.23444 9.92184 9.17323 9.89736 9.13243 9.87287C8.87535 9.73413 8.43464 9.35871 8.02658 8.95065C7.61851 8.54259 7.23901 8.10596 7.10435 7.8448C7.07987 7.79991 7.05947 7.74278 7.05947 7.67749C7.05947 7.62852 7.07579 7.57139 7.12068 7.52243L7.41448 7.22454C7.59811 7.03275 7.70829 6.86544 7.70829 6.67365C7.70829 6.52267 7.643 6.35944 7.50426 6.16357L6.61876 4.92306C6.46777 4.71087 6.25558 4.62109 6.02298 4.62109C5.7455 4.62109 5.46802 4.74351 5.22726 4.97611C4.8192 5.35969 4.63965 5.83712 4.63965 6.36353C4.63965 7.55915 5.55779 9.00778 6.76158 10.2116Z" fill="white"/>
</svg>
