<svg width="277" height="42" viewBox="0 0 277 42" fill="none" xmlns="http://www.w3.org/2000/svg">
<g clip-path="url(#clip0_247_1290)">
<path d="M15.9563 13.6094H5.42184V31.4249H0.5V9.04785H20.8781V31.4249H15.9563V13.6094Z" fill="#FF4A37"/>
<path d="M25.668 9.04764H30.5898V11.5005C31.5972 10.5538 32.6765 9.82224 33.8278 9.30583C34.9792 8.78944 36.2744 8.53125 37.7135 8.53125C39.3254 8.53125 40.8078 8.83248 42.1605 9.43493C43.5421 10.0087 44.7221 10.8263 45.7007 11.8878C46.6793 12.9206 47.4421 14.1543 47.989 15.5886C48.5359 16.9944 48.8093 18.5292 48.8093 20.1931C48.8093 21.9144 48.5071 23.4923 47.9027 24.9267C47.327 26.3324 46.5354 27.5517 45.528 28.5845C44.5207 29.5886 43.3119 30.3776 41.9015 30.9514C40.5199 31.5251 39.0375 31.812 37.4545 31.812C36.0441 31.812 34.7777 31.5969 33.6551 31.1665C32.5326 30.7361 31.5109 30.1337 30.5898 29.3592V40.0312H25.668V9.04764ZM36.7206 27.2505C37.6992 27.2505 38.6058 27.0928 39.4405 26.7771C40.304 26.4616 41.0523 26.0026 41.6856 25.4002C42.3188 24.769 42.8081 24.0231 43.1535 23.1623C43.5277 22.273 43.7148 21.2689 43.7148 20.1502C43.7148 19.1173 43.5564 18.1706 43.2398 17.3099C42.9232 16.4206 42.4627 15.6747 41.8583 15.0722C41.2826 14.441 40.5918 13.9533 39.7859 13.6092C38.98 13.2649 38.0877 13.0927 37.1091 13.0927C35.6124 13.0927 34.2884 13.4513 33.1371 14.1686C32.0145 14.8857 31.1655 15.7465 30.5898 16.7505V23.5497C31.1655 24.7547 31.9857 25.6726 33.0507 26.3038C34.1157 26.935 35.339 27.2505 36.7206 27.2505Z" fill="#FF4A37"/>
<path d="M51.3672 20.1931C51.3672 18.5005 51.655 16.9513 52.2307 15.5456C52.8063 14.1112 53.6267 12.8776 54.6917 11.8448C55.7566 10.812 57.0231 10.0087 58.491 9.43493C59.9589 8.83248 61.5851 8.53125 63.3696 8.53125C65.1254 8.53125 66.7372 8.83248 68.2052 9.43493C69.7019 10.0087 70.9826 10.812 72.0476 11.8448C73.1126 12.8776 73.9329 14.1112 74.5086 15.5456C75.113 16.9513 75.4152 18.5005 75.4152 20.1931C75.4152 21.8858 75.113 23.4493 74.5086 24.8837C73.9329 26.2895 73.1126 27.5087 72.0476 28.5415C70.9826 29.5743 69.7019 30.3776 68.2052 30.9514C66.7372 31.5251 65.1254 31.812 63.3696 31.812C61.6139 31.812 60.002 31.5251 58.5341 30.9514C57.0662 30.3776 55.7997 29.5743 54.7348 28.5415C53.6698 27.5087 52.8351 26.2895 52.2307 24.8837C51.655 23.4493 51.3672 21.8858 51.3672 20.1931ZM56.4618 20.1931C56.4618 21.1973 56.6201 22.1297 56.9367 22.9903C57.2821 23.8509 57.757 24.5968 58.3614 25.228C58.9659 25.8591 59.6854 26.3612 60.5201 26.7342C61.3836 27.0783 62.3335 27.2505 63.3696 27.2505C64.4058 27.2505 65.3412 27.0928 66.1759 26.7771C67.0394 26.4328 67.7734 25.9595 68.3779 25.3571C68.9823 24.7259 69.4571 23.98 69.8025 23.1194C70.1479 22.2587 70.3206 21.2832 70.3206 20.1931C70.3206 19.1029 70.1336 18.1276 69.7594 17.2669C69.414 16.3775 68.9247 15.6316 68.2915 15.0292C67.6583 14.398 66.9243 13.9247 66.0896 13.6092C65.2549 13.2649 64.3483 13.0927 63.3696 13.0927C62.391 13.0927 61.47 13.2649 60.6065 13.6092C59.7718 13.9247 59.0379 14.398 58.4047 15.0292C57.8002 15.6316 57.3252 16.3775 56.9798 17.2669C56.6345 18.1276 56.4618 19.1029 56.4618 20.1931Z" fill="#FF4A37"/>
<path d="M76.7305 26.8634H79.3296C80.3404 25.5724 81.0191 24.095 81.3657 22.4311C81.7123 20.7671 81.8855 18.888 81.8855 16.7938V9.04785H99.9931V26.8634H103.155V36.5459H98.5635V31.4249H81.3223V36.5459H76.7305V26.8634ZM95.0546 26.8634V13.6094H86.564V19.3327C86.564 20.7098 86.3763 22.0868 86.0008 23.4638C85.6254 24.8122 85.1056 25.9454 84.4414 26.8634H95.0546Z" fill="#3981F1"/>
<path d="M104.156 20.1931C104.156 18.5005 104.445 16.9513 105.023 15.5456C105.6 14.1112 106.423 12.8776 107.492 11.8448C108.56 10.812 109.831 10.0087 111.304 9.43493C112.777 8.83248 114.408 8.53125 116.199 8.53125C117.961 8.53125 119.578 8.83248 121.051 9.43493C122.553 10.0087 123.838 10.812 124.906 11.8448C125.975 12.8776 126.798 14.1112 127.375 15.5456C127.982 16.9513 128.285 18.5005 128.285 20.1931C128.285 21.8858 127.982 23.4493 127.375 24.8837C126.798 26.2895 125.975 27.5087 124.906 28.5415C123.838 29.5743 122.553 30.3776 121.051 30.9514C119.578 31.5251 117.961 31.812 116.199 31.812C114.437 31.812 112.82 31.5251 111.347 30.9514C109.874 30.3776 108.604 29.5743 107.535 28.5415C106.467 27.5087 105.629 26.2895 105.023 24.8837C104.445 23.4493 104.156 21.8858 104.156 20.1931ZM109.268 20.1931C109.268 21.1973 109.427 22.1297 109.744 22.9903C110.091 23.8509 110.567 24.5968 111.174 25.228C111.78 25.8591 112.502 26.3612 113.34 26.7342C114.206 27.0783 115.159 27.2505 116.199 27.2505C117.239 27.2505 118.177 27.0928 119.015 26.7771C119.881 26.4328 120.618 25.9595 121.224 25.3571C121.83 24.7259 122.307 23.98 122.654 23.1194C123 22.2587 123.173 21.2832 123.173 20.1931C123.173 19.1029 122.986 18.1276 122.61 17.2669C122.264 16.3775 121.773 15.6316 121.137 15.0292C120.502 14.398 119.766 13.9247 118.928 13.6092C118.091 13.2649 117.181 13.0927 116.199 13.0927C115.217 13.0927 114.293 13.2649 113.427 13.6092C112.589 13.9247 111.853 14.398 111.217 15.0292C110.611 15.6316 110.134 16.3775 109.788 17.2669C109.441 18.1276 109.268 19.1029 109.268 20.1931Z" fill="#3981F1"/>
<path d="M131.34 9.04785H136.278V18.1278L146.025 9.04785H152.479L141.52 19.1606L152.87 31.4249H146.545L137.925 22.2158L136.278 23.808V31.4249H131.34V9.04785Z" fill="#3981F1"/>
<path d="M154.43 9.04785H175.657V13.6094H167.512V31.4249H162.574V13.6094H154.43V9.04785Z" fill="#3981F1"/>
<path d="M176.734 20.1931C176.734 18.5005 177.024 16.9513 177.602 15.5456C178.179 14.1112 179.002 12.8776 180.07 11.8448C181.139 10.812 182.409 10.0087 183.883 9.43493C185.355 8.83248 186.987 8.53125 188.777 8.53125C190.54 8.53125 192.156 8.83248 193.63 9.43493C195.132 10.0087 196.416 10.812 197.484 11.8448C198.553 12.8776 199.377 14.1112 199.954 15.5456C200.561 16.9513 200.863 18.5005 200.863 20.1931C200.863 21.8858 200.561 23.4493 199.954 24.8837C199.377 26.2895 198.553 27.5087 197.484 28.5415C196.416 29.5743 195.132 30.3776 193.63 30.9514C192.156 31.5251 190.54 31.812 188.777 31.812C187.016 31.812 185.398 31.5251 183.926 30.9514C182.453 30.3776 181.182 29.5743 180.113 28.5415C179.045 27.5087 178.208 26.2895 177.602 24.8837C177.024 23.4493 176.734 21.8858 176.734 20.1931ZM181.847 20.1931C181.847 21.1973 182.006 22.1297 182.323 22.9903C182.67 23.8509 183.145 24.5968 183.753 25.228C184.359 25.8591 185.081 26.3612 185.919 26.7342C186.785 27.0783 187.738 27.2505 188.777 27.2505C189.817 27.2505 190.756 27.0928 191.594 26.7771C192.46 26.4328 193.196 25.9595 193.803 25.3571C194.409 24.7259 194.886 23.98 195.232 23.1194C195.579 22.2587 195.752 21.2832 195.752 20.1931C195.752 19.1029 195.564 18.1276 195.188 17.2669C194.843 16.3775 194.351 15.6316 193.716 15.0292C193.08 14.398 192.344 13.9247 191.507 13.6092C190.67 13.2649 189.759 13.0927 188.777 13.0927C187.795 13.0927 186.871 13.2649 186.005 13.6092C185.168 13.9247 184.431 14.398 183.796 15.0292C183.189 15.6316 182.713 16.3775 182.366 17.2669C182.02 18.1276 181.847 19.1029 181.847 20.1931Z" fill="#3981F1"/>
<path d="M203.883 9.04764H208.821V11.5005C209.831 10.5538 210.914 9.82224 212.07 9.30583C213.225 8.78944 214.525 8.53125 215.969 8.53125C217.586 8.53125 219.073 8.83248 220.431 9.43493C221.816 10.0087 223 10.8263 223.982 11.8878C224.964 12.9206 225.73 14.1543 226.278 15.5886C226.828 16.9944 227.101 18.5292 227.101 20.1931C227.101 21.9144 226.799 23.4923 226.191 24.9267C225.615 26.3324 224.821 27.5517 223.809 28.5845C222.798 29.5886 221.585 30.3776 220.171 30.9514C218.784 31.5251 217.296 31.812 215.709 31.812C214.293 31.812 213.022 31.5969 211.896 31.1665C210.77 30.7361 209.745 30.1337 208.821 29.3592V40.0312H203.883V9.04764ZM214.973 27.2505C215.955 27.2505 216.864 27.0928 217.701 26.7771C218.567 26.4616 219.319 26.0026 219.954 25.4002C220.589 24.769 221.08 24.0231 221.427 23.1623C221.802 22.273 221.99 21.2689 221.99 20.1502C221.99 19.1173 221.831 18.1706 221.514 17.3099C221.196 16.4206 220.733 15.6747 220.127 15.0722C219.549 14.441 218.856 13.9533 218.048 13.6092C217.239 13.2649 216.344 13.0927 215.362 13.0927C213.861 13.0927 212.532 13.4513 211.377 14.1686C210.251 14.8857 209.399 15.7465 208.821 16.7505V23.5497C209.399 24.7547 210.222 25.6726 211.29 26.3038C212.359 26.935 213.586 27.2505 214.973 27.2505Z" fill="#3981F1"/>
<path d="M229.551 20.1931C229.551 18.5005 229.84 16.9513 230.417 15.5456C230.995 14.1112 231.818 12.8776 232.886 11.8448C233.955 10.812 235.226 10.0087 236.698 9.43493C238.171 8.83248 239.804 8.53125 241.594 8.53125C243.355 8.53125 244.973 8.83248 246.446 9.43493C247.947 10.0087 249.232 10.812 250.301 11.8448C251.369 12.8776 252.192 14.1112 252.77 15.5456C253.376 16.9513 253.68 18.5005 253.68 20.1931C253.68 21.8858 253.376 23.4493 252.77 24.8837C252.192 26.2895 251.369 27.5087 250.301 28.5415C249.232 29.5743 247.947 30.3776 246.446 30.9514C244.973 31.5251 243.355 31.812 241.594 31.812C239.832 31.812 238.215 31.5251 236.741 30.9514C235.269 30.3776 233.998 29.5743 232.93 28.5415C231.861 27.5087 231.024 26.2895 230.417 24.8837C229.84 23.4493 229.551 21.8858 229.551 20.1931ZM234.662 20.1931C234.662 21.1973 234.821 22.1297 235.139 22.9903C235.486 23.8509 235.962 24.5968 236.569 25.228C237.175 25.8591 237.897 26.3612 238.735 26.7342C239.601 27.0783 240.554 27.2505 241.594 27.2505C242.633 27.2505 243.572 27.0928 244.409 26.7771C245.276 26.4328 246.012 25.9595 246.618 25.3571C247.225 24.7259 247.701 23.98 248.048 23.1194C248.395 22.2587 248.568 21.2832 248.568 20.1931C248.568 19.1029 248.381 18.1276 248.005 17.2669C247.658 16.3775 247.167 15.6316 246.531 15.0292C245.897 14.398 245.161 13.9247 244.322 13.6092C243.485 13.2649 242.575 13.0927 241.594 13.0927C240.612 13.0927 239.688 13.2649 238.822 13.6092C237.983 13.9247 237.247 14.398 236.612 15.0292C236.005 15.6316 235.529 16.3775 235.182 17.2669C234.836 18.1276 234.662 19.1029 234.662 20.1931Z" fill="#3981F1"/>
<path d="M256.746 9.04785H266.363C269.511 9.04785 271.879 9.49253 273.468 10.3819C275.056 11.2712 275.851 12.8061 275.851 14.9863C275.851 16.0191 275.619 16.8942 275.157 17.6113C274.695 18.3286 274.088 18.9741 273.338 19.5478C274.406 19.9496 275.2 20.6237 275.721 21.5704C276.24 22.4885 276.5 23.5499 276.5 24.7549C276.5 26.9926 275.706 28.6709 274.117 29.7896C272.53 30.8798 270.291 31.4249 267.403 31.4249H256.746V9.04785ZM261.685 22.1728V26.9926H266.927C268.399 26.9926 269.511 26.8061 270.262 26.433C271.013 26.0602 271.389 25.4577 271.389 24.6257C271.389 23.7364 271.027 23.1052 270.306 22.7323C269.612 22.3593 268.529 22.1728 267.057 22.1728H261.685ZM261.685 13.4802V17.9126H267.489C268.5 17.9126 269.295 17.7262 269.872 17.3532C270.45 16.9803 270.738 16.4065 270.738 15.6318C270.738 14.7139 270.349 14.1257 269.568 13.8676C268.818 13.6094 267.706 13.4802 266.233 13.4802H261.685Z" fill="#3981F1"/>
</g>
<defs>
<clipPath id="clip0_247_1290">
<rect width="276" height="42" fill="white" transform="translate(0.5)"/>
</clipPath>
</defs>
</svg>
