<svg width="63" height="63" viewBox="0 0 63 63" fill="none" xmlns="http://www.w3.org/2000/svg">
<g clip-path="url(#clip0_247_1138)">
<mask id="mask0_247_1138" style="mask-type:luminance" maskUnits="userSpaceOnUse" x="0" y="0" width="63" height="63">
<path d="M47.7273 0H15.2727C6.83783 0 0 6.83783 0 15.2727V47.7273C0 56.1622 6.83783 63 15.2727 63H47.7273C56.1622 63 63 56.1622 63 47.7273V15.2727C63 6.83783 56.1622 0 47.7273 0Z" fill="white"/>
</mask>
<g mask="url(#mask0_247_1138)">
<path d="M63 0H0V63H63V0Z" fill="#100942"/>
<path d="M63 31.5C80.3971 31.5 94.5 17.397 94.5 1.33514e-05C94.5 -17.397 80.3971 -31.5 63 -31.5C45.603 -31.5 31.5 -17.397 31.5 1.33514e-05C31.5 17.397 45.603 31.5 63 31.5Z" fill="#ED143B"/>
<path d="M38.9121 30.0617H20.2997V22.6966H38.9121C39.9993 22.6966 40.7552 22.8861 41.1346 23.217C41.514 23.5479 41.749 24.1617 41.749 25.0583V27.7029C41.749 28.6475 41.514 29.2613 41.1346 29.5922C40.7552 29.9231 39.9993 30.0646 38.9121 30.0646V30.0617ZM40.189 15.7528H12.4062V47.25H20.2997V37.0027H34.8465L41.749 47.25H50.5881L42.9778 36.9546C45.7835 36.5388 47.0434 35.679 48.0824 34.2619C49.1214 32.8449 49.6426 30.5793 49.6426 27.5558V25.1941C49.6426 23.4008 49.4526 21.9838 49.1214 20.8977C48.7902 19.8116 48.2241 18.8669 47.4199 18.0184C46.5706 17.2151 45.625 16.6494 44.4896 16.2704C43.3543 15.9395 41.9359 15.75 40.189 15.75V15.7528Z" fill="white"/>
</g>
</g>
<defs>
<clipPath id="clip0_247_1138">
<rect width="63" height="63" fill="white"/>
</clipPath>
</defs>
</svg>
