<svg width="17" height="17" viewBox="0 0 17 17" fill="none" xmlns="http://www.w3.org/2000/svg">
<g clip-path="url(#clip0_247_319)">
<rect width="17" height="17" rx="3" fill="#0D3260"/>
<path d="M8.60194 13.2039C11.1254 13.2039 13.2083 11.121 13.2083 8.60194C13.2083 6.08289 11.121 4 8.59749 4C6.07844 4 4 6.08289 4 8.60194C4 11.121 6.08289 13.2039 8.60194 13.2039ZM6.35883 9.16272C6.15855 9.16272 6.00278 9.00695 6.00278 8.80667C6.00278 8.60639 6.15855 8.45062 6.35883 8.45062H8.24589V5.89596C8.24589 5.69569 8.40166 5.53991 8.59749 5.53991C8.80222 5.53991 8.95799 5.69569 8.95799 5.89596V8.80667C8.95799 9.00695 8.80222 9.16272 8.59749 9.16272H6.35883Z" fill="white"/>
</g>
<defs>
<clipPath id="clip0_247_319">
<rect width="17" height="17" rx="3" fill="white"/>
</clipPath>
</defs>
</svg>
