<svg width="24" height="24" viewBox="0 0 24 24" fill="none" xmlns="http://www.w3.org/2000/svg">
<path d="M5.25 3C4.38805 3 3.5614 3.34241 2.9519 3.9519C2.34241 4.5614 2 5.38805 2 6.25V17.75C2 18.612 2.34241 19.4386 2.9519 20.0481C3.5614 20.6576 4.38805 21 5.25 21H18.75C19.1768 21 19.5994 20.9159 19.9937 20.7526C20.388 20.5893 20.7463 20.3499 21.0481 20.0481C21.3499 19.7463 21.5893 19.388 21.7526 18.9937C21.9159 18.5994 22 18.1768 22 17.75V6.25C22 5.8232 21.9159 5.40059 21.7526 5.00628C21.5893 4.61197 21.3499 4.25369 21.0481 3.9519C20.7463 3.65011 20.388 3.41072 19.9937 3.24739C19.5994 3.08406 19.1768 3 18.75 3H5.25ZM9 9.25C9.00003 9.07623 9.04534 8.90547 9.13147 8.75454C9.21759 8.60361 9.34156 8.47774 9.49115 8.38931C9.64075 8.30089 9.8108 8.25298 9.98455 8.25029C10.1583 8.24761 10.3297 8.29024 10.482 8.374L15.482 11.124C15.639 11.2102 15.77 11.3371 15.8612 11.4913C15.9525 11.6455 16.0006 11.8213 16.0006 12.0005C16.0006 12.1797 15.9525 12.3555 15.8612 12.5097C15.77 12.6639 15.639 12.7908 15.482 12.877L10.482 15.627C10.3297 15.7108 10.1581 15.7534 9.9843 15.7507C9.81046 15.748 9.64034 15.7 9.49072 15.6114C9.3411 15.5229 9.21715 15.3969 9.13109 15.2458C9.04504 15.0947 8.99986 14.9239 9 14.75V9.25Z" fill="#FF4940"/>
</svg>
