<svg width="68" height="18" viewBox="0 0 68 18" fill="none" xmlns="http://www.w3.org/2000/svg">
<g clip-path="url(#clip0_1_487)">
<path d="M30.1949 17.7178H25.5252L28.4437 0.294724H33.1138L30.1949 17.7178ZM21.5968 0.294724L17.1449 12.2784L16.6181 9.69787L16.6186 9.6988L15.0473 1.86347C15.0473 1.86347 14.8573 0.294724 12.8322 0.294724H5.47235L5.38599 0.589737C5.38599 0.589737 7.63663 1.04461 10.2706 2.58119L14.3276 17.7182H19.1931L26.6224 0.294724H21.5968ZM58.3262 17.7178H62.614L58.8756 0.294258H55.1218C53.3883 0.294258 52.9661 1.59269 52.9661 1.59269L46.0017 17.7178H50.8695L51.843 15.1298H57.7793L58.3262 17.7178ZM53.1878 11.5546L55.6414 5.03451L57.0217 11.5546H53.1878ZM46.3668 4.48457L47.0332 0.743068C47.0332 0.743068 44.9769 -0.0166016 42.8332 -0.0166016C40.5159 -0.0166016 35.0128 0.967242 35.0128 5.75131C35.0128 10.2525 41.4716 10.3084 41.4716 12.6727C41.4716 15.037 35.6783 14.6134 33.7663 13.1224L33.0721 17.0345C33.0721 17.0345 35.1572 18.0184 38.3429 18.0184C41.5296 18.0184 46.337 16.4156 46.337 12.0533C46.337 7.52325 39.8202 7.10147 39.8202 5.13192C39.8207 3.1619 44.3685 3.41497 46.3668 4.48457Z" fill="#2566AF"/>
<path d="M16.6185 9.699L15.0472 1.86367C15.0472 1.86367 14.8572 0.294922 12.8321 0.294922H5.47229L5.38593 0.589935C5.38593 0.589935 8.92333 1.30207 12.3163 3.97024C15.5606 6.5205 16.6185 9.699 16.6185 9.699Z" fill="#E6A540"/>
</g>
<defs>
<clipPath id="clip0_1_487">
<rect width="68" height="18" fill="white"/>
</clipPath>
</defs>
</svg>
