<svg width="28" height="28" viewBox="0 0 28 28" fill="none" xmlns="http://www.w3.org/2000/svg">
<g clip-path="url(#clip0_247_356)">
<path d="M18.2973 0H9.70214C1.85864 0 -0.000732422 1.85938 -0.000732422 9.70288V18.298C-0.000732422 26.1415 1.85864 28.0009 9.70214 28.0009H18.2973C26.1408 28.0009 28.0001 26.1415 28.0001 18.298V9.70288C28.0001 1.85938 26.1224 0 18.2973 0ZM22.604 19.9745H20.5714C19.8014 19.9745 19.5643 19.3637 18.1791 17.9602C16.976 16.7939 16.4431 16.639 16.1465 16.639C15.7274 16.639 15.6084 16.7571 15.6084 17.332V19.1686C15.6084 19.6612 15.4535 19.957 14.1498 19.957C11.9938 19.957 9.60152 18.6532 7.92414 16.2243C5.39452 12.6648 4.70239 9.99862 4.70239 9.44738C4.70239 9.15075 4.82052 8.87337 5.39014 8.87337H7.42714C7.94252 8.87337 8.13852 9.1105 8.33889 9.66175C9.34602 12.5694 11.0234 15.1165 11.7155 15.1165C11.971 15.1165 12.0891 14.9984 12.0891 14.3465V11.3435C12.0113 9.95837 11.2824 9.83937 11.2824 9.34762C11.2824 9.1105 11.4784 8.87337 11.7925 8.87337H14.9959C15.429 8.87337 15.5883 9.1105 15.5883 9.62062V13.6719C15.5883 14.1094 15.7843 14.2642 15.9024 14.2642C16.1579 14.2642 16.3766 14.1094 16.85 13.6351C18.313 11.9945 19.3613 9.46488 19.3613 9.46488C19.4978 9.16825 19.7349 8.89087 20.2503 8.89087H22.2873C22.898 8.89087 23.0345 9.205 22.898 9.6425C22.6425 10.8273 20.1496 14.3456 20.1496 14.3456C19.9353 14.7009 19.853 14.8558 20.1496 15.2521C20.3684 15.5487 21.0798 16.1639 21.5531 16.7151C22.4238 17.7039 23.0931 18.5334 23.2716 19.1074C23.472 19.677 23.1763 19.9736 22.6014 19.9736L22.604 19.9745Z" fill="#0D3260"/>
</g>
<defs>
<clipPath id="clip0_247_356">
<rect width="28" height="28" fill="white"/>
</clipPath>
</defs>
</svg>
