<svg width="63" height="63" viewBox="0 0 63 63" fill="none" xmlns="http://www.w3.org/2000/svg">
<g clip-path="url(#clip0_247_1132)">
<rect x="8" y="12" width="48" height="41" fill="white"/>
<path d="M41.1705 0H21.8315C4.1836 0 0 4.18359 0 21.8315V41.1705C0 58.8184 4.1836 63.002 21.8315 63.002H41.1705C58.8184 63.002 63.002 58.8184 63.002 41.1705V21.8315C63.002 4.18359 58.777 0 41.1705 0ZM50.8607 44.9426H46.2873C44.5548 44.9426 44.0212 43.5684 40.9047 40.4106C38.1977 37.7862 36.9987 37.4377 36.3313 37.4377C35.3883 37.4377 35.1205 37.7035 35.1205 38.997V43.1294C35.1205 44.2378 34.7721 44.9032 31.8386 44.9032C26.9876 44.9032 21.6051 41.9698 17.831 36.5046C12.1393 28.4957 10.582 22.4969 10.582 21.2566C10.582 20.5892 10.8478 19.9651 12.1295 19.9651H16.7127C17.8723 19.9651 18.3133 20.4986 18.7642 21.7389C21.0302 28.2811 24.8043 34.0121 26.3616 34.0121C26.9364 34.0121 27.2022 33.7463 27.2022 32.2796V25.5229C27.027 22.4063 25.387 22.1386 25.387 21.0322C25.387 20.4986 25.828 19.9651 26.5348 19.9651H33.7424C34.7169 19.9651 35.0752 20.4986 35.0752 21.6464V30.7617C35.0752 31.7461 35.5162 32.0946 35.782 32.0946C36.3569 32.0946 36.8491 31.7461 37.9142 30.679C41.2059 26.9876 43.5645 21.296 43.5645 21.296C43.8716 20.6286 44.4052 20.0045 45.5647 20.0045H50.148C51.5222 20.0045 51.8293 20.7113 51.5222 21.6956C50.9473 24.3613 45.3383 32.2777 45.3383 32.2777C44.856 33.077 44.6709 33.4254 45.3383 34.3173C45.8305 34.9847 47.4311 36.3687 48.4962 37.609C50.4551 39.8337 51.9612 41.7001 52.3628 42.9916C52.8137 44.2732 52.1482 44.9407 50.8548 44.9407L50.8607 44.9426Z" fill="#0077FF"/>
</g>
<defs>
<clipPath id="clip0_247_1132">
<rect width="63" height="63" fill="white"/>
</clipPath>
</defs>
</svg>
