<svg width="30" height="30" viewBox="0 0 30 30" fill="none" xmlns="http://www.w3.org/2000/svg">
<circle cx="15" cy="15" r="15" fill="#25D366"/>
<path d="M15.0007 8.33333C18.6827 8.33333 21.6673 11.318 21.6673 15C21.6673 18.682 18.6827 21.6667 15.0007 21.6667C13.8225 21.6687 12.665 21.3569 11.6473 20.7633L8.33666 21.6667L9.23799 18.3547C8.64397 17.3366 8.33193 16.1787 8.33399 15C8.33399 11.318 11.3187 8.33333 15.0007 8.33333ZM12.7287 11.8667L12.5953 11.872C12.5091 11.8779 12.4249 11.9006 12.3473 11.9387C12.275 11.9797 12.209 12.0309 12.1513 12.0907C12.0713 12.166 12.026 12.2313 11.9773 12.2947C11.7307 12.6153 11.598 13.0089 11.6 13.4133C11.6013 13.74 11.6867 14.058 11.82 14.3553C12.0927 14.9567 12.5413 15.5933 13.1333 16.1833C13.276 16.3253 13.416 16.468 13.5667 16.6007C14.3023 17.2483 15.1788 17.7153 16.1267 17.9647L16.5053 18.0227C16.6287 18.0293 16.752 18.02 16.876 18.014C17.0701 18.0038 17.2597 17.9512 17.4313 17.86C17.5186 17.8149 17.6038 17.766 17.6867 17.7133C17.6867 17.7133 17.7149 17.6942 17.77 17.6533C17.86 17.5867 17.9153 17.5393 17.99 17.4613C18.046 17.4036 18.0927 17.3364 18.13 17.26C18.182 17.1513 18.234 16.944 18.2553 16.7713C18.2713 16.6393 18.2667 16.5673 18.2647 16.5227C18.262 16.4513 18.2027 16.3773 18.138 16.346L17.75 16.172C17.75 16.172 17.17 15.9193 16.8153 15.758C16.7782 15.7418 16.7384 15.7326 16.698 15.7307C16.6524 15.7259 16.6063 15.731 16.5628 15.7456C16.5193 15.7602 16.4795 15.784 16.446 15.8153C16.4427 15.814 16.398 15.852 15.916 16.436C15.8883 16.4732 15.8502 16.5013 15.8065 16.5167C15.7628 16.5321 15.7155 16.5342 15.6707 16.5227C15.6272 16.5111 15.5847 16.4964 15.5433 16.4787C15.4607 16.444 15.432 16.4307 15.3753 16.4067C14.9926 16.2399 14.6383 16.0143 14.3253 15.738C14.2413 15.6647 14.1633 15.5847 14.0833 15.5073C13.8211 15.2561 13.5925 14.972 13.4033 14.662L13.364 14.5987C13.3362 14.5559 13.3134 14.51 13.296 14.462C13.2707 14.364 13.3367 14.2853 13.3367 14.2853C13.3367 14.2853 13.4987 14.108 13.574 14.012C13.6473 13.9187 13.7093 13.828 13.7493 13.7633C13.828 13.6367 13.8527 13.5067 13.8113 13.406C13.6247 12.95 13.4318 12.4964 13.2327 12.0453C13.1933 11.956 13.0767 11.892 12.9707 11.8793C12.9347 11.8749 12.8987 11.8713 12.8627 11.8687C12.7731 11.8635 12.6834 11.8644 12.594 11.8713L12.7287 11.8667Z" fill="white"/>
</svg>
