<svg width="168" height="44" viewBox="0 0 168 44" fill="none" xmlns="http://www.w3.org/2000/svg">
<g clip-path="url(#clip0_247_1265)">
<path d="M160.171 38.3134C163.467 38.3134 165.801 37.7737 167.541 36.6115V31.3398C165.756 32.4605 163.604 33.1662 160.583 33.1662C155.502 33.1662 153.396 29.5964 153.396 23.9511C153.396 18.0152 155.96 14.985 160.629 14.985C163.375 14.985 166.076 15.8567 167.495 16.6869V11.2077C165.985 10.4605 163.375 9.9209 159.805 9.9209C150.695 9.9209 145.98 15.8567 145.98 24.1586C146.026 33.2492 150.649 38.3134 160.171 38.3134ZM115.63 35.9058V30.6341C113.433 32.0039 109.679 33.2077 106.246 33.2077C101.028 33.2077 99.0592 30.9662 98.7388 26.4001H115.951V22.9964C115.951 13.4907 111.327 9.9209 104.232 9.9209C95.5345 9.9209 91.4146 15.9398 91.4146 24.2001C91.4146 33.7058 96.5873 38.3134 105.651 38.3134C110.183 38.3134 113.525 37.1926 115.63 35.9058ZM50.3072 10.419V21.2115H40.7857V10.419H33.6445V37.7737H40.7857V26.3586H50.3072V37.7737H57.4483V10.419H50.3072ZM89.6293 32.6266H86.4707V10.419H65.6881V12.7435C65.6881 19.4266 65.2304 28.0605 62.7127 32.6266H60.4238V44.0001H67.0156V37.7737H82.9917V44.0001H89.5835V32.6266H89.6293ZM138.381 37.7737H146.484L135.04 23.0379L145.11 10.419H137.924L127.853 23.0379V10.419H120.712V37.7737H127.853V24.3247L138.381 37.7737ZM104.049 14.985C107.574 14.985 108.672 17.6417 108.672 21.0869V21.6266H98.7388C98.9219 17.2681 100.661 14.985 104.049 14.985ZM79.3295 32.6266H69.2587C71.2271 28.5171 71.7764 21.0454 71.7764 16.3134V15.4832H79.3295V32.6266Z" fill="black"/>
<path d="M27.6948 37.7736H20.4163V5.10566H17.1662C11.2153 5.10566 8.10245 7.80377 8.10245 11.8302C8.10245 16.3962 10.254 18.5132 14.6943 21.2113L18.3564 23.4528L7.82779 37.7736H0L9.47575 24.9887C4.02834 21.4604 0.961308 18.0151 0.961308 12.2038C0.961308 4.93962 6.54605 0 17.1204 0H27.649L27.6948 37.7736Z" fill="#FC3F1D"/>
</g>
<defs>
<clipPath id="clip0_247_1265">
<rect width="168" height="44" fill="white"/>
</clipPath>
</defs>
</svg>
