<svg width="63" height="63" viewBox="0 0 63 63" fill="none" xmlns="http://www.w3.org/2000/svg">
<g clip-path="url(#clip0_247_1135)">
<path d="M37.575 37.575C32.625 42.6825 32.265 49.05 31.8375 63C44.8425 63 53.82 62.955 58.455 58.455C62.955 53.82 63 44.415 63 31.8375C49.05 32.2875 42.6825 32.625 37.575 37.575ZM0 31.8375C0 44.415 0.045 53.82 4.545 58.455C9.18 62.955 18.1575 63 31.1625 63C30.7125 49.05 30.375 42.6825 25.425 37.575C20.3175 32.625 13.95 32.265 0 31.8375ZM31.1625 0C18.18 0 9.18 0.045 4.545 4.545C0.045 9.18 0 18.585 0 31.1625C13.95 30.7125 20.3175 30.375 25.425 25.425C30.375 20.3175 30.735 13.95 31.1625 0ZM37.575 25.425C32.625 20.3175 32.265 13.95 31.8375 0C44.8425 0 53.82 0.045 58.455 4.545C62.955 9.18 63 18.585 63 31.1625C49.05 30.7125 42.6825 30.375 37.575 25.425Z" fill="#202022"/>
<path d="M63 31.8375V31.1625C49.05 30.7125 42.6825 30.375 37.575 25.425C32.625 20.3175 32.265 13.95 31.8375 0H31.1625C30.7125 13.95 30.375 20.3175 25.425 25.425C20.3175 30.375 13.95 30.735 0 31.1625V31.8375C13.95 32.2875 20.3175 32.625 25.425 37.575C30.375 42.6825 30.735 49.05 31.1625 63H31.8375C32.2875 49.05 32.625 42.6825 37.575 37.575C42.6825 32.625 49.05 32.265 63 31.8375Z" fill="white"/>
</g>
<defs>
<clipPath id="clip0_247_1135">
<rect width="63" height="63" fill="white"/>
</clipPath>
</defs>
</svg>
