<svg width="162" height="339" viewBox="0 0 162 339" fill="none" xmlns="http://www.w3.org/2000/svg">
<g clip-path="url(#clip0_3106_8649)">
<path d="M99.1887 206.317C93.1343 208.069 86.9302 208.88 80.6584 209.411C72.424 210.112 64.1811 210.208 55.9326 210.089C46.6115 209.959 37.3355 208.771 28.284 206.55C27.1319 206.269 26.8156 206.401 26.937 207.574C26.9566 208.232 26.9216 208.891 26.8325 209.544C26.7817 207.563 26.73 205.583 26.6772 203.604C30.93 204.355 35.1488 205.292 39.4355 205.886C48.5613 207.131 57.776 207.611 66.9824 207.321C77.2726 207.009 87.4922 206.069 97.4802 203.343C98.158 203.157 98.8074 202.87 99.471 202.631L99.1887 206.317Z" fill="#09808D"/>
<path d="M92.8574 122.724H92.9336L92.8997 122.622L92.8574 122.724ZM101.109 201.598V201.615L101.131 201.59L101.109 201.598ZM114.099 131.204C115.765 128.908 114.776 127.265 113.073 125.399C110.509 122.605 108.318 119.491 105.87 116.576C97.5309 106.686 88.0483 98.3612 75.2279 94.6895C88.0003 104.329 87.3706 117.375 84.4337 130.953C83.8689 133.505 83.1799 135.455 85.8993 137.68C88.8079 140.083 88.7345 143.856 86.3342 146.951C83.9339 150.046 80.63 150.845 77.0154 149.157C73.4715 147.497 71.9325 144.509 72.7796 140.739C73.6268 137.05 76.205 134.979 80.1217 135.036C81.3868 135.055 81.6268 134.681 81.7595 133.522C82.7338 124.904 84.6738 116.297 81.7595 107.677C80.02 102.536 76.99 98.3921 72.404 95.4154C69.2865 101.166 66.1727 106.918 63.0627 112.671C62.721 113.304 62.4979 113.515 61.8879 112.873C56.1912 106.834 50.4832 100.805 44.764 94.788C39.1162 95.9134 35.047 104.354 36.3488 111.951C37.196 116.959 39.2744 121.48 41.4939 125.968C41.6238 126.226 41.8808 126.595 42.1011 126.612C52.8318 127.422 55.6161 135.719 58.2451 143.918C59.3747 147.421 61.3994 151.137 58.6038 154.877C57.8441 155.892 56.9772 156.801 55.5963 156.511C55.1332 156.413 54.4809 155.777 54.4414 155.341C54.32 153.934 55.5229 153.774 56.5311 153.203C58.1661 152.28 57.4544 150.454 57.1128 149.095C55.6556 143.321 53.8879 137.632 49.9542 132.962C47.8561 130.475 45.3287 128.196 41.765 129.198C38.2013 130.199 37.3626 133.345 37.0802 136.611C36.4957 143.082 37.9923 149.154 40.8868 154.899C41.6662 156.444 42.6574 157.969 44.9306 156.922C45.7156 156.562 46.43 157.074 46.6786 157.89C46.9609 158.816 46.4329 159.488 45.6196 159.769C42.7562 160.763 40.5366 159.398 39.2969 157.142C35.112 149.48 32.819 141.403 35.4819 132.664C35.8772 131.372 36.6114 129.76 37.6676 129.169C40.8614 127.391 39.3619 125.728 38.1533 123.63C33.4798 115.47 31.808 107.072 36.8995 98.3921C37.1339 97.9954 37.227 97.7844 36.6171 97.9391C32.7907 100.539 28.8176 102.953 25.1635 105.775C13.1309 115.079 7.87004 128.716 1.94555 141.971C-0.158235 146.681 -2.06433 150.741 4.78921 152.857C4.82875 152.857 4.85132 152.924 4.87956 152.961C10.5273 155.667 16.3247 158.261 22.5005 159.288C27.0639 160.045 26.0445 162.209 24.9573 164.893C24.8556 165.709 24.7521 166.527 24.6467 167.346L24.4518 169.926C24.2542 179.622 24.1694 189.317 23.7967 199.004C23.6724 202.164 23.9718 204.597 27.575 205.321C39.1303 208.365 50.9116 209.169 62.7944 208.714C75.0867 208.241 87.2435 206.823 98.9598 202.805L101.109 201.584C102.619 198.771 101.586 195.785 101.391 192.944C100.795 183.867 99.8521 174.813 99.0417 165.751C99.0417 165.537 99.0106 165.326 98.9965 165.115C98.5315 161.379 98.0674 157.641 97.6043 153.903L97.0198 149.12C95.749 140.587 94.4782 132.05 93.1171 122.926C96.0117 130.5 98.2276 138.315 99.7391 146.278L114.099 131.204Z" fill="#06AFB5"/>
<path d="M84.4196 41.7697V41.7894C84.4342 41.785 84.4483 41.7794 84.462 41.7725L84.4196 41.7697Z" fill="#F8BB98"/>
<path d="M24.1299 47.8413L23.342 41.539C23.1076 27.0381 24.2033 21.0002 24.7229 16.8278C25.0646 14.0789 26.3833 12.0138 28.9587 10.6239C44.8966 1.98635 61.919 -1.15917 79.9127 0.368576C81.7171 0.523321 82.6688 1.6431 83.4594 3.00204C88.4012 11.4848 91.115 20.7977 93.6085 30.1892C67.8604 25.9408 44.1681 29.7672 24.1299 47.8413Z" fill="#06AFB5"/>
<path d="M107.883 156.818C107.883 156.818 107.883 156.838 107.883 156.846L107.866 156.812L107.883 156.818Z" fill="#F8BB98"/>
<path d="M129.986 88.2525L129.875 88.1931H129.89L129.986 88.2525Z" fill="#F8BB98"/>
<path d="M145.938 105.353H145.921L145.864 105.333L145.938 105.353Z" fill="#F8BB98"/>
<path d="M24.6384 167.335C24.7401 166.519 24.8446 165.7 24.9462 164.884C24.8521 165.704 24.7552 166.524 24.6554 167.343L24.6384 167.335Z" fill="#F8BB98"/>
<path d="M7.42969 222.869C8.45475 225.609 9.34992 228.006 10.2536 230.403C8.54992 228.245 7.56296 225.611 7.42969 222.869ZM15.9295 232.916L15.907 232.89L15.6556 232.662C13.3457 229.95 12.747 226.684 12.5098 222.725L15.6839 232.637L15.907 232.89L15.9324 232.913L15.9295 232.916Z" fill="#F8BB98"/>
<path d="M24.9574 164.89C24.8557 165.706 24.7522 166.524 24.6467 167.343C24.5338 167.743 24.4237 168.142 24.3135 168.542C24.2797 168.77 24.2486 168.998 24.2147 169.226C23.8946 171.321 23.5746 173.418 23.2546 175.517L23.0428 176.468C22.3651 183.577 21.6864 190.685 21.0068 197.794L20.7865 200.689L20.4194 207.611L20.4533 208.173C20.7046 208.677 20.9531 209.181 21.2045 209.687L21.2553 209.738L21.2214 209.802C22.2097 212.494 23.1971 215.185 24.1836 217.875L24.3022 218.277L24.3785 220.584C24.3305 220.77 24.2853 220.955 24.2373 221.147C23.7657 222.697 22.9355 223.291 21.4642 222.188L21.3767 222.134C21.2553 222.002 21.131 221.873 21.0124 221.738L20.1257 220.612L20.1512 220.635C20.0213 220.452 19.8885 220.272 19.7586 220.092L19.7869 220.123L19.4621 219.56V219.537L19.1797 219.042V218.977L18.9256 218.415C18.944 218.424 18.962 218.434 18.9792 218.446C18.9115 218.313 18.8437 218.181 18.7731 218.049L18.6375 218.029L18.502 218.046C18.2535 222.567 19.5214 227.106 18.3778 231.619C18.3778 231.619 16.3728 233.104 15.9662 233.22C14.334 233.808 12.7526 233.563 11.191 232.938L7.99436 231.273L6.605 229.88L6.18142 229.438L6.15319 229.39L5.61947 228.594L5.59689 228.543C2.60076 223.521 2.77301 217.976 2.66006 212.397C2.49627 204.339 1.69711 196.292 1.62934 188.237C1.57286 181.189 2.15176 174.135 2.44827 167.087C2.51322 166.764 2.57536 166.44 2.64031 166.12C2.66572 165.596 2.69394 165.07 2.72218 164.547C2.69777 164.514 2.68631 164.473 2.68995 164.432C2.69358 164.391 2.71209 164.353 2.74196 164.325L2.91139 163.638V163.556C3.11282 162.2 3.31521 160.844 3.51853 159.488C3.60597 159.471 3.69665 159.48 3.7783 159.516L24.9574 164.89Z" fill="#F8BB98"/>
<path d="M93.5069 36.0977L84.7726 36.2552L83.4313 36.0527L82.5249 35.9767L81.4461 35.7741C79.7123 35.4252 77.9417 35.1945 76.2474 34.7078C68.0751 32.3585 59.8689 31.25 51.5272 33.8075C41.4092 36.9839 35.9253 44.2879 33.5222 54.1775C33.0591 56.0738 32.675 56.1216 31.4861 54.8611L30.639 54.2647L30.6588 54.2844L30.094 53.9045L30.1363 53.9383C27.9761 52.4668 25.6464 51.9294 23.0767 52.661C26.4286 51.6875 23.5991 49.4141 24.0989 47.8414C44.1484 29.7672 67.8181 25.9408 93.5662 30.1893C93.7921 32.1587 95.0035 34.1507 93.5069 36.0977Z" fill="#262733"/>
<path d="M58.6154 154.871C57.8558 155.887 56.9888 156.795 55.608 156.506C55.1448 156.407 54.4925 155.771 54.453 155.335C54.3316 153.928 55.5345 153.768 56.5427 153.197C58.1777 152.274 57.4661 150.448 57.1244 149.089C55.6672 143.316 53.8995 137.627 49.9659 132.956C47.8677 130.469 45.3404 128.19 41.7766 129.192C38.2129 130.194 37.3629 133.345 37.0805 136.611C36.496 143.082 37.9926 149.154 40.8871 154.899C41.6665 156.444 42.6577 157.969 44.9309 156.922C45.7159 156.562 46.4304 157.074 46.6789 157.89C46.9612 158.816 46.4332 159.488 45.6199 159.769C42.7565 160.763 40.5369 159.398 39.2973 157.142C35.1123 149.48 32.8193 141.403 35.4822 132.664C35.8775 131.372 36.6117 129.76 37.6679 129.169C40.8617 127.391 39.3622 125.728 38.1536 123.63C33.4801 115.47 31.8083 107.072 36.8998 98.3921C37.1342 97.9954 37.2274 97.7844 36.6174 97.9392C39.4639 95.4745 42.0562 92.751 45.4166 90.8519C47.1476 89.8728 46.0068 87.4756 46.6732 85.8325C46.0915 88.8289 47.9581 92.3402 44.7756 94.788C39.1278 95.9134 35.0586 104.354 36.3604 111.951C37.2076 116.959 39.286 121.48 41.5055 125.968C41.6354 126.226 41.8924 126.595 42.1126 126.612C52.8434 127.422 55.6277 135.719 58.2567 143.918C59.3891 147.415 61.411 151.132 58.6154 154.871Z" fill="#262733"/>
<path d="M85.8909 137.68C83.1715 135.444 83.8718 133.505 84.4253 130.953C87.3593 117.375 87.9919 104.329 75.2195 94.6895L70.08 92.3008C69.9925 93.5219 70.7069 94.2703 71.6021 94.9343L72.4154 95.4126C77.0013 98.3865 80.0398 102.534 81.7709 107.674C84.6879 116.295 82.7479 124.901 81.7709 133.519C81.6381 134.678 81.3981 135.053 80.133 135.033C76.2276 134.977 73.655 137.047 72.7909 140.736C71.9212 144.506 73.4687 147.488 77.0267 149.154C80.63 150.842 83.9226 150.063 86.3455 146.948C88.7684 143.834 88.808 140.083 85.8909 137.68ZM80.1952 145.629C78.1027 145.598 76.9901 144.306 76.8404 142.162C77.0748 140.111 78.2354 138.907 80.3448 138.975C82.4542 139.042 83.708 140.274 83.6742 142.376C83.6403 144.478 82.2622 145.657 80.1952 145.629Z" fill="#262733"/>
<path d="M71.6021 94.9343C68.8121 96.538 65.7313 96.0597 62.8001 95.8515C57.463 95.4858 52.524 93.7357 48.243 90.4298C47.7065 90.0162 47.1135 89.341 47.0457 88.7417C46.9074 87.5713 47.1276 86.3615 47.1982 85.1685C48.2204 85.5934 49.2455 86.0126 50.2649 86.443C56.3786 89.0287 62.6081 90.8969 69.3656 89.5154C69.396 89.5501 69.4151 89.5932 69.4201 89.639C69.4252 89.6848 69.416 89.731 69.3939 89.7715L70.08 92.3036C69.9925 93.5219 70.707 94.2787 71.6021 94.9343Z" fill="#D0826D"/>
<path d="M24.9572 164.89L3.79789 159.516C3.71624 159.48 3.62553 159.471 3.53809 159.488C3.98426 157.312 4.43137 155.136 4.87943 152.958C10.5272 155.664 16.3246 158.259 22.5004 159.285C27.0638 160.042 26.0444 162.206 24.9572 164.89Z" fill="#D0826D"/>
<path d="M115.302 132.2L102.052 152.51L98.0508 148.476L99.7451 146.295L114.09 131.195L115.302 132.2Z" fill="#D0826D"/>
<path d="M99.7451 146.295L98.0507 148.476L97.0257 149.129C95.7549 140.595 94.4842 132.059 93.123 122.935C96.018 130.512 98.234 138.329 99.7451 146.295Z" fill="#046F7D"/>
<path d="M90.8893 75.4872C95.9243 64.8717 94.8823 53.6316 94.2977 42.4394C94.2582 42.2312 94.2215 42.023 94.1848 41.8176C93.9589 39.9138 93.732 38.009 93.5042 36.1033L84.77 36.2609L83.4286 36.0583L82.5222 35.9823L81.4434 35.7797C79.7096 35.4309 77.939 35.2001 76.2447 34.7134C68.0724 32.3641 59.8662 31.2556 51.5245 33.8131C41.4066 36.9896 35.9226 44.2935 33.5195 54.1831C33.0564 56.0794 32.6723 56.1272 31.4835 54.8668L30.6363 54.2703L30.6561 54.29L30.0913 53.9102L30.1337 53.9439C27.9734 52.4724 25.6437 51.9351 23.074 52.6666L22.5826 53.0548V53.038C22.3003 53.2208 22.0179 53.4009 21.7355 53.5866L21.2272 54.0227L20.9956 54.2337L20.6822 54.5854L20.6991 54.5516L20.2868 54.9174C20.2704 54.9168 20.254 54.9201 20.2391 54.9269C20.2241 54.9338 20.211 54.9442 20.2008 54.957C20.1906 54.9699 20.1837 54.985 20.1805 55.0011C20.1772 55.0172 20.1779 55.0338 20.1823 55.0496L20.0298 55.2044C19.9536 55.2044 19.9169 55.2381 19.9254 55.3141C19.8548 55.3929 19.787 55.4717 19.7192 55.5533V55.5786C19.5385 55.8768 19.3549 56.1751 19.1714 56.4733L19.1883 56.4564C18.985 56.8165 18.7817 57.1767 18.5812 57.5368C18.5798 57.5593 18.5798 57.5818 18.5812 57.6043C17.4206 60.19 17.2625 62.7559 18.7252 65.2909V65.3162V65.3022C18.7619 65.4288 18.7958 65.5526 18.8354 65.682L18.8664 65.7608L19.7531 67.0691L19.8011 67.0184L19.7616 67.0803L20.2219 67.6852L20.2416 67.764L20.3179 67.7865L20.9815 68.4139L21.3543 68.8135L21.4418 68.8838L21.7072 69.1004L22.4019 69.5337L22.3793 69.5168C25.8188 71.6692 29.295 72.3895 32.8559 69.7785C35.5198 75.9518 40.1518 81.0781 46.0349 84.3639C46.3992 84.5693 46.4415 85.3345 46.6335 85.8382C46.0518 88.8346 47.9184 92.3459 44.7359 94.7936C50.4496 100.816 56.1575 106.845 61.8599 112.879C62.4557 113.512 62.6929 113.31 63.0346 112.676C66.1371 106.92 69.2509 101.168 72.376 95.4211L71.5627 94.9428C68.7727 96.5465 65.6919 96.0682 62.7607 95.86C57.4236 95.4942 52.4846 93.7442 48.2036 90.4383C47.6671 90.0247 47.0741 89.3494 47.0063 88.7502C46.868 87.5797 47.0882 86.3699 47.1588 85.177C48.181 85.6018 49.2061 86.021 50.2255 86.4515C56.3392 89.0371 62.5687 90.9053 69.3262 89.5239C69.3566 89.5586 69.3757 89.6017 69.3807 89.6475C69.3858 89.6933 69.3766 89.7395 69.3545 89.7799C73.0566 88.7164 76.9394 88.1903 80.3026 86.1223C80.4325 86.0576 80.5568 85.9901 80.6838 85.9226L80.6528 85.9704L81.5225 85.4865L81.6129 85.4443L82.5589 84.7746L82.9627 84.5805V84.5946L83.4371 84.1838L83.7845 83.9503L83.7477 83.9953L84.0838 83.7899L84.1459 83.7421L84.561 83.3341L84.5215 83.3566L84.8716 83.0528L84.8321 83.109L85.5014 82.6392L85.5352 82.6082L86.0633 82.1187L86.1452 82.0399L86.7891 81.3449L87.4781 80.6022L87.447 80.6247L88.2179 79.6653L88.6161 79.2207L89.0453 78.5342L89.7485 77.5495V77.5157L90.8413 75.5125L90.8216 75.5322L90.8893 75.4872ZM28.1231 62.6349C27.2279 63.6534 28.1908 64.6466 28.8883 66.8158C26.1972 63.7491 26.601 60.0634 23.6529 58.5525C24.2628 58.3415 24.8756 57.9476 25.4884 57.9504C28.8036 57.9673 30.1195 60.2969 31.2067 63.0148C30.0659 63.1386 29.1566 61.4589 28.1231 62.6321V62.6349ZM50.1747 42.9205C50.3667 42.566 50.474 42.0905 50.7705 41.8823C52.4649 40.7119 54.1592 39.5668 55.9072 38.5061C56.3929 38.2106 57.0706 38.2247 57.6608 38.0925C57.4857 38.7311 57.5027 39.5471 57.096 39.9775C55.4934 41.6841 53.3934 42.8463 51.0925 43.3003L50.1747 42.9205ZM57.6382 56.7743C55.0007 56.7743 54.4839 54.3463 54.4501 52.2727C54.4162 50.351 54.5997 47.9201 57.2541 47.8639C60.1062 47.8076 60.1656 50.3595 60.6428 52.3655C60.2192 54.3041 60.2588 56.7856 57.6382 56.7715V56.7743ZM71.6813 73.0084C71.3735 74.0354 69.8599 72.6455 68.8885 72.4035C66.3075 71.7649 63.8959 71.8408 61.6311 73.3883C61.2669 73.5795 60.8811 73.7268 60.4818 73.8272C60.5327 73.3151 60.3971 72.6596 60.6654 72.3163C62.2044 70.3468 64.5285 70.5241 66.8045 70.2568C67.4483 70.3356 68.2164 70.3243 68.9196 70.5382C70.2355 70.9433 72.1614 71.4019 71.6813 73.0056V73.0084ZM74.203 62.0357C73.3305 62.5702 72.0682 62.4746 70.9838 62.6687C70.8116 61.3801 72.184 61.6192 72.6782 60.9806C73.4491 59.9902 73.3587 59.2193 72.3591 58.4822C69.6453 56.4789 69.4109 53.9299 71.0939 50.1288C70.676 53.5585 71.7576 55.241 73.8981 56.6168C76.2645 58.1276 77.2387 60.1703 74.203 62.0385V62.0357ZM80.7431 56.2426C78.1 56.1694 77.6171 53.7892 77.6086 51.7015C77.6086 49.6927 77.9164 47.259 80.6358 47.3321C83.4117 47.4081 83.519 49.9009 83.8466 51.9013C83.5472 53.9889 83.3467 56.3185 80.7431 56.2454V56.2426ZM84.6062 41.3618L84.4198 41.7613H84.4537C84.4401 41.7681 84.4259 41.7738 84.4113 41.7782V41.7585L76.6852 41.162C75.4653 40.6359 76.2024 40.0873 76.6627 39.5414C79.2211 38.4526 81.6637 38.8549 84.0414 40.1041L84.1318 40.1745L84.4819 40.5543C84.5342 40.5956 84.5833 40.6408 84.6288 40.6894C84.6288 40.6894 84.5921 40.7541 84.5751 40.7906C84.5921 40.996 84.6006 41.1789 84.6062 41.3646V41.3618Z" fill="#F8BB98"/>
<path d="M161.492 92.6497H161.523C161.424 92.8354 161.328 93.0211 161.24 93.2124V93.2405C161.06 93.5219 160.882 93.8033 160.704 94.0846C160.699 94.0946 160.694 94.104 160.687 94.1127L160.28 94.5517L159.758 95.1931L159.789 95.1481L159.507 95.4773L159.202 95.7868L158.919 96.0681L158.959 96.0344L158.049 96.8925L158.086 96.8475L157.439 97.4102L157.468 97.3596C157.36 97.4721 157.25 97.5846 157.143 97.7L156.897 97.9166L156.426 98.3387L156.344 98.2824L156.412 98.3471L155.745 98.8198L155.785 98.772L155.44 99.0674L155.471 99.0477C155.299 99.1799 155.127 99.3122 154.952 99.4416L154.986 99.3994L153.483 100.502C153.345 100.632 153.201 100.758 153.06 100.885H153.031L152.633 101.073L152.684 101.02L152.331 101.301L152.357 101.287L151.399 101.999L151.331 102.041L150.962 102.221L151.01 102.165L150.64 102.432L149.792 102.995L149.815 102.975L149.273 103.341V103.327L148.733 103.696L148.767 103.648L148.378 103.876L147.869 104.23L147.9 104.199L146.892 104.832L146.853 104.9H146.777L145.929 105.378H145.946H145.873L145.929 105.398L145.413 105.707H145.382L144.899 105.989L144.831 106.011L144.436 106.166L144.481 106.138L143.882 106.464L143.924 106.436L142.75 106.999L142.786 106.971L141.053 107.832L141.081 107.806L140.321 108.22H140.265C136.594 110.35 138.542 114.128 137.768 117.08C136.789 120.833 136.509 124.769 135.927 128.615C135.902 128.622 135.879 128.635 135.86 128.653C135.841 128.671 135.827 128.694 135.82 128.719C135.778 129.001 135.738 129.282 135.696 129.577C134.479 136.33 132.835 142.964 129.895 149.216V149.23L129.331 150.355V150.369L129.048 150.932L128.932 150.949H129.051C128.435 151.947 127.821 152.948 127.207 153.951L126.778 154.612L126.645 154.578L126.772 154.621L126.56 154.902C126.56 154.902 126.501 154.981 126.498 154.981L126.109 155.366L124.671 156.81L124.708 156.765L124.375 157.068L124.406 157.052L124.002 157.465L123.94 157.513L123.615 157.73L123.641 157.685L123.242 157.924C122.92 158.152 122.596 158.377 122.271 158.602L122.206 158.621L121.641 158.872V158.847C117.894 160.58 114.299 159.817 110.724 158.233L110.769 158.27L109.357 157.614L109.383 157.634L108.253 157.054L107.855 156.866C107.7 156.098 107.129 155.971 106.463 155.996L106.488 156.025L105.136 155.023L105.153 155.04C104.777 154.758 104.396 154.477 104.023 154.196C103.899 154.094 103.772 154.002 103.648 153.914L102.046 152.53L115.302 132.2H115.341C116.962 125.74 118.582 119.28 120.201 112.82H120.416L120.339 112.454C121.23 108.36 122.12 104.266 123.011 100.173L123.121 99.858L124.443 96.4311L124.411 96.3523L124.476 96.2989L125.324 94.4532V94.3885L125.583 93.882L125.614 93.8033L127.47 90.8575V90.8744L128.142 89.9037L128.184 89.8446L128.613 89.4479L128.594 89.4732L128.876 89.1919C128.966 89.099 129.06 89.0034 129.158 88.9105L129.475 88.6038L129.449 88.6207L129.91 88.1902H129.895L130.006 88.2493L129.91 88.1818C130.13 88.0383 130.347 87.9005 130.57 87.7542C131.756 86.9101 132.954 86.2517 134.289 87.4728C135.749 89.7602 133.88 91.7128 133.654 93.8314C133.626 94.1127 133.826 94.4082 133.936 94.6951L133.905 94.7261L134.713 94.0846V94.1212L135.919 93.2771L135.885 93.3221C136.009 93.2377 136.131 93.1477 136.255 93.0605L136.218 93.083L136.74 92.6835L136.704 92.7369L137.091 92.4753L137.043 92.5203L137.387 92.2389L137.893 91.8957L138.302 91.5384L138.381 91.4849L138.737 91.2992L139.155 90.9728L139.234 90.925L139.595 90.7478L139.556 90.7815L140.047 90.4045L140.109 90.3904L143.859 88.556C149.225 86.384 154.661 85.0954 160.283 87.7345L160.964 88.1396L160.995 88.1677C162.277 89.5379 162.209 91.0544 161.492 92.6497Z" fill="#F8BB98"/>
<path d="M107.889 156.846L106.477 155.949C107.143 155.923 107.714 156.05 107.869 156.818C107.886 156.826 107.886 156.838 107.889 156.846Z" fill="#F2D2A6"/>
<path d="M135.916 128.601C135.84 128.922 135.764 129.243 135.685 129.563C135.727 129.282 135.766 129.001 135.809 128.705C135.816 128.68 135.83 128.657 135.849 128.639C135.868 128.621 135.891 128.608 135.916 128.601Z" fill="#D0826D"/>
<path d="M120.416 112.811H120.201C120.249 112.688 120.294 112.564 120.34 112.437L120.416 112.811Z" fill="#F8BB98"/>
<path d="M20.2135 55.044L20.061 55.1997C20.0749 55.1649 20.0955 55.1332 20.1217 55.1065C20.1479 55.0798 20.1791 55.0586 20.2135 55.044Z" fill="#F2D2A6"/>
<path d="M2.93099 163.559L2.91687 163.641L2.87451 163.593L2.93099 163.559Z" fill="#D0826D"/>
<path d="M98.731 208.159C98.731 208.441 98.731 208.742 98.7536 209.034C98.7451 208.745 98.7394 208.452 98.731 208.159Z" fill="#1B3B69"/>
<path d="M92.8574 122.724L92.8998 122.628L92.9337 122.73L92.8574 122.724Z" fill="#046F7D"/>
<path d="M83.8462 51.9041C83.5469 53.9889 83.3464 56.3185 80.74 56.2454C78.1335 56.1722 77.6139 53.792 77.6055 51.7043C77.6055 49.6955 77.9133 47.2618 80.6327 47.3349C83.4113 47.4109 83.5187 49.9037 83.8462 51.9041Z" fill="#262733"/>
<path d="M60.6541 52.3571C60.2192 54.304 60.2588 56.7856 57.6382 56.7715C55.0177 56.7574 54.4839 54.3434 54.45 52.2698C54.4162 50.3482 54.5997 47.9173 57.2541 47.861C60.1062 47.8104 60.1656 50.3623 60.6541 52.3571Z" fill="#262733"/>
<path d="M74.2029 62.0385C73.3303 62.573 72.0681 62.4774 70.9837 62.6715C70.8115 61.3829 72.1839 61.6221 72.678 60.9834C73.449 59.993 73.3586 59.2221 72.3589 58.485C69.6452 56.4817 69.4108 53.9327 71.0938 50.1316C70.6759 53.5613 71.7574 55.2438 73.8979 56.6196C76.2644 58.1277 77.2386 60.1703 74.2029 62.0385Z" fill="#D0826D"/>
<path d="M28.123 62.6321C27.2279 63.6506 28.1908 64.6438 28.8883 66.813C26.1972 63.7463 26.601 60.0605 23.6528 58.5497C24.2628 58.3387 24.8756 57.9448 25.4884 57.9476C28.8036 57.9645 30.1195 60.2941 31.2067 63.0119C30.0659 63.1386 29.1566 61.4589 28.123 62.6321Z" fill="#D0826D"/>
<path d="M71.6814 73.0056C71.3736 74.0325 69.86 72.6427 68.8886 72.4007C66.3076 71.762 63.896 71.838 61.6312 73.3854C61.267 73.5767 60.8812 73.724 60.4819 73.8243C60.5328 73.3123 60.3972 72.6567 60.6655 72.3135C62.2045 70.344 64.5285 70.5213 66.8046 70.254C67.4484 70.3327 68.2165 70.3215 68.9197 70.5353C70.2356 70.9433 72.1615 71.4019 71.6814 73.0056Z" fill="#262733"/>
<path d="M84.4535 41.7669C84.4399 41.7738 84.4257 41.7795 84.4111 41.7839V41.7641L84.4535 41.7669Z" fill="#262733"/>
<path d="M84.6062 41.3646L84.4198 41.7641L76.6852 41.162C75.4653 40.6359 76.2023 40.0873 76.6626 39.5414C79.221 38.4526 81.6637 38.8549 84.0414 40.1041L84.1317 40.1745L84.4819 40.5543C84.4889 40.6451 84.5256 40.7311 84.5864 40.7991C84.592 40.996 84.6005 41.1789 84.6062 41.3646Z" fill="#262733"/>
<path d="M57.6607 38.0896C57.4856 38.7283 57.5026 39.5442 57.0959 39.9747C55.4932 41.6812 53.3933 42.8434 51.0924 43.2975L50.1689 42.9176C50.361 42.5631 50.4683 42.0876 50.7648 41.8794C52.4591 40.709 54.1534 39.5639 55.9014 38.5032C56.3928 38.2078 57.0705 38.219 57.6607 38.0896Z" fill="#262733"/>
<path d="M84.4535 41.7669C84.4399 41.7738 84.4257 41.7795 84.4111 41.7839V41.7641L84.4535 41.7669Z" fill="#F2D2A6"/>
<path d="M84.6401 40.709C84.6401 40.709 84.6034 40.7738 84.5864 40.8103C84.5257 40.7423 84.489 40.6563 84.4819 40.5656C84.5384 40.6091 84.5913 40.6571 84.6401 40.709Z" fill="#F2D2A6"/>
<path d="M15.6867 232.637L15.6585 232.662C13.3486 229.95 12.7499 226.684 12.5127 222.725L15.6867 232.637Z" fill="#D0826D"/>
<path d="M11.1597 232.201C9.56142 230.088 7.60167 225.93 7.43506 222.869C8.46012 225.609 10.2533 229.804 11.1597 232.201Z" fill="#D0826D"/>
<path d="M15.9012 232.89L15.6499 232.662L15.6781 232.637L15.9012 232.89Z" fill="#D0826D"/>
<path d="M76.8403 142.168C77.0747 140.117 78.2353 138.913 80.3447 138.98C82.4542 139.048 83.708 140.274 83.6741 142.376C83.6402 144.478 82.2621 145.657 80.1979 145.629C78.1336 145.6 76.99 144.306 76.8403 142.168Z" fill="#61909D"/>
<path d="M92.397 320.231C93.12 321.41 94.402 320.253 95.3903 321.047C99.2252 324.116 104.283 325.388 107.66 329.147C109.03 330.672 109.786 332.546 109.433 334.617C109.239 335.764 108.022 336.074 107.07 336.322C102.269 337.574 97.3501 337.343 92.5298 336.94C86.3483 336.423 80.2177 335.266 74.0758 334.307C71.8167 333.955 69.5576 333.545 67.8632 331.738C67.6486 331.505 67.3323 331.243 67.2985 330.97C66.985 328.01 66.7902 325.062 67.8632 322.167C68.1287 321.441 69.3486 321.368 69.0944 320.315C82.8467 323.194 91.9876 320.358 92.397 320.231Z" fill="#202428"/>
<path d="M27.5382 320.282C23.8361 319.573 24.7708 316.739 24.8132 314.334C24.9515 306.737 25.1125 299.113 25.2537 291.502C25.4316 281.894 25.5841 272.285 25.7817 262.68C25.9982 252.037 26.2373 241.394 26.499 230.749C26.6346 224.97 26.8124 219.194 26.9423 213.415C26.9706 212.132 26.8717 210.843 26.8322 209.558C26.9213 208.905 26.9562 208.246 26.9367 207.588C26.8153 206.415 27.1315 206.283 28.2837 206.564C37.3352 208.785 46.6111 209.973 55.9323 210.104C64.1808 210.222 72.4237 210.126 80.6581 209.425C86.9299 208.894 93.134 208.083 99.1883 206.331C98.8834 214.302 98.5774 222.274 98.2706 230.246C98.0955 234.77 97.9072 239.293 97.7058 243.815C97.2314 254.352 96.7316 264.891 96.2656 275.431C95.9663 282.024 95.6962 288.622 95.4552 295.224C95.1766 302.658 94.9234 310.093 94.6956 317.53C94.6476 319.111 93.6733 319.764 92.3969 320.231L91.1714 320.611L89.4771 321.092L88.6299 321.258L86.4442 321.618C80.6289 322.196 74.757 321.755 69.0943 320.315C67.095 319.93 66.8691 318.543 66.8635 316.796C66.7938 299.222 66.6855 281.649 66.5387 264.076C66.437 252.416 66.2394 240.76 66.07 229.103C66.0417 227.106 65.9457 225.111 65.8525 223.113C65.8384 222.784 66.0813 222.252 65.5701 222.168C65.059 222.084 64.9404 222.629 64.8811 223.012C64.3615 226.447 63.8419 229.88 63.3675 233.321C62.6502 238.529 61.9754 243.731 61.2722 248.953C60.5549 254.282 59.833 259.61 59.1063 264.939C58.2817 271.05 57.4619 277.163 56.6467 283.278C55.8645 289.186 55.1161 295.095 54.3311 301.003C53.5046 307.193 52.6575 313.383 51.7896 319.573C51.6145 320.816 50.3777 320.813 49.5136 321.193L48.7907 321.356C48.4716 321.449 41.0335 324.204 27.5382 320.282Z" fill="#14B3B8"/>
<path d="M48.8387 321.362L49.5136 321.207C49.5136 324.021 50.1264 326.792 50.1066 329.628C50.0897 332.799 48.7652 334.974 45.9583 336.243C38.636 339.582 31.0313 339.633 23.3928 337.745C19.9081 336.881 18.7729 332.076 20.6169 328.95C22.5343 325.7 25.8269 323.635 27.5382 320.281C41.8496 324.021 48.8217 321.365 48.8387 321.362Z" fill="#202428"/>
</g>
<defs>
<clipPath id="clip0_3106_8649">
<rect width="162" height="339" fill="white"/>
</clipPath>
</defs>
</svg>
