<svg width="330" height="327" viewBox="0 0 330 327" fill="none" xmlns="http://www.w3.org/2000/svg">
<path d="M318.714 313.469L124.222 118.827C142.15 48.2679 178.851 2.39106e-05 221.166 2.57602e-05C263.481 2.76099e-05 300.967 49.2949 318.714 121.002C325.958 149.999 330.002 182.681 330.002 217.236C330.002 251.79 325.958 284.472 318.714 313.469Z" fill="#ADF3FE"/>
<path d="M217.128 326.147C183.928 326.147 152.419 322.401 124.229 315.696C50.7662 298.237 0.00033378 260.722 0.000335681 217.227C0.000337582 173.732 50.7662 136.217 124.168 118.758L318.66 313.461C288.358 321.556 253.83 326.147 217.128 326.147Z" fill="#ADF3FE"/>
</svg>
