<svg width="324" height="198" viewBox="0 0 324 198" fill="none" xmlns="http://www.w3.org/2000/svg">
<path d="M90.1854 224.618L235.181 87.5496C287.743 100.184 323.7 126.05 323.7 155.871C323.7 185.693 286.978 212.111 233.561 224.618C211.96 229.723 187.614 232.573 161.873 232.573C136.132 232.573 111.786 229.723 90.1854 224.618Z" fill="url(#paint0_linear_3098_486)"/>
<path d="M-0.000222033 155.871C-0.000219278 126.049 36.0012 100.184 88.5183 87.5492C83.5231 107.416 80.733 129.623 80.733 153.02C80.733 178.886 84.1531 203.219 90.1833 224.575L90.1383 224.618C36.7212 212.11 -0.000224821 186.033 -0.000222033 155.871Z" fill="#023066"/>
<path d="M80.7328 153.022C80.7328 129.624 83.5229 107.417 88.5181 87.5503C101.524 35.7774 129.47 6.35572e-05 161.871 6.6237e-05C194.272 6.89168e-05 222.218 35.7774 235.224 87.5077L90.1831 224.576C84.1529 203.22 80.7328 178.887 80.7328 153.022Z" fill="url(#paint1_linear_3098_486)"/>
<defs>
<linearGradient id="paint0_linear_3098_486" x1="273.298" y1="248.058" x2="112.122" y2="67.3947" gradientUnits="userSpaceOnUse">
<stop offset="0.18" stop-color="#0BBDC8"/>
<stop offset="0.57" stop-color="#066990"/>
<stop offset="0.97" stop-color="#001027"/>
</linearGradient>
<linearGradient id="paint1_linear_3098_486" x1="41.4462" y1="14.0387" x2="349.196" y2="370.166" gradientUnits="userSpaceOnUse">
<stop offset="0.18" stop-color="#0BBDC8"/>
<stop offset="0.57" stop-color="#066990"/>
<stop offset="0.97" stop-color="#001027"/>
</linearGradient>
</defs>
</svg>
