<svg width="215" height="432" viewBox="0 0 215 432" fill="none" xmlns="http://www.w3.org/2000/svg">
<g opacity="0.3">
<path d="M311.293 115.121C282.564 107.919 250.183 103.898 215.947 103.898C181.711 103.898 149.33 107.919 120.601 115.121C138.676 46.824 174.588 0.3125 215.947 0.3125C257.306 0.3125 293.218 46.824 311.293 115.121Z" fill="url(#paint0_linear_3130_8612)"/>
<path d="M311.299 115.121L118.451 308.489C48.5426 290.665 0.719727 254.176 0.719727 212.105C0.719727 170.035 49.5601 132.766 120.606 115.121C149.336 107.919 181.716 103.898 215.952 103.898C250.189 103.898 282.569 107.919 311.299 115.121Z" fill="url(#paint1_linear_3130_8612)"/>
<path d="M323.874 216.125C323.874 249.133 320.163 280.46 313.519 308.487C296.222 381.525 259.053 431.998 215.958 431.998C172.864 431.998 135.695 381.525 118.397 308.547L311.305 115.18C319.325 145.307 323.874 179.636 323.874 216.125Z" fill="url(#paint2_linear_3130_8612)"/>
</g>
<defs>
<linearGradient id="paint0_linear_3130_8612" x1="183.985" y1="2.89314" x2="231.325" y2="168.227" gradientUnits="userSpaceOnUse">
<stop stop-color="#04517D"/>
<stop offset="0.66" stop-color="#023066"/>
</linearGradient>
<linearGradient id="paint1_linear_3130_8612" x1="67.7555" y1="82.0531" x2="296.267" y2="323.538" gradientUnits="userSpaceOnUse">
<stop offset="0.18" stop-color="#0BBDC8"/>
<stop offset="0.57" stop-color="#066990"/>
<stop offset="0.97" stop-color="#001027"/>
</linearGradient>
<linearGradient id="paint2_linear_3130_8612" x1="376.126" y1="412.193" x2="-61.0054" y2="-64.7124" gradientUnits="userSpaceOnUse">
<stop offset="0.18" stop-color="#0BBDC8"/>
<stop offset="0.57" stop-color="#066990"/>
<stop offset="0.97" stop-color="#001027"/>
</linearGradient>
</defs>
</svg>
